<?xml version="1.0" encoding="UTF-8" standalone="no"?>
<!DOCTYPE svg PUBLIC "-//W3C//DTD SVG 1.1//EN" "http://www.w3.org/Graphics/SVG/1.1/DTD/svg11.dtd">
<svg xmlns="http://www.w3.org/2000/svg" version="1.1" viewBox="0.00 0.00 504.00 116.00">
<g stroke-width="2.00" fill="none" stroke-linecap="butt">
<path stroke="#7a7830" vector-effect="non-scaling-stroke" d="
  M 20.99 8.84
  L 16.00 8.97
  Q 15.47 8.98 15.47 9.51
  L 15.45 14.85"
/>
<path stroke="#cce384" vector-effect="non-scaling-stroke" d="
  M 15.45 14.85
  L 21.06 15.03"
/>
<path stroke="#7a7830" vector-effect="non-scaling-stroke" d="
  M 21.06 15.03
  L 20.98 20.29
  A 0.62 0.62 0.0 0 1 20.36 20.90
  L 15.41 20.92"
/>
<path stroke="#cce384" vector-effect="non-scaling-stroke" d="
  M 15.41 20.92
  L 15.41 26.54
  A 0.53 0.52 83.7 0 0 16.04 27.05
  Q 18.37 26.59 21.15 27.05"
/>
<path stroke="#7a7830" vector-effect="non-scaling-stroke" d="
  M 21.15 27.05
  Q 20.70 30.09 21.38 32.45
  Q 21.52 32.94 22.02 32.85
  Q 23.68 32.56 25.89 32.90"
/>
<path stroke="#cce384" vector-effect="non-scaling-stroke" d="
  M 25.89 32.90
  Q 27.03 33.80 26.83 36.21"
/>
<path stroke="#7a7830" vector-effect="non-scaling-stroke" d="
  M 26.83 36.21
  L 26.53 38.49
  Q 26.46 38.98 25.97 38.97
  L 21.88 38.91
  A 0.75 0.74 1.6 0 0 21.12 39.62
  L 20.95 44.25
  A 0.58 0.57 8.8 0 0 21.38 44.83
  L 21.72 44.93"
/>
<path stroke="#f9ef5c" vector-effect="non-scaling-stroke" d="
  M 21.72 44.93
  L 21.04 45.06"
/>
<path stroke="#7a7830" vector-effect="non-scaling-stroke" d="
  M 21.04 45.06
  L 16.17 45.06
  Q 15.57 45.06 15.55 45.66
  L 15.40 50.28
  A 0.69 0.69 0.0 0 1 14.72 50.95
  L 10.55 51.02
  Q 9.87 51.03 9.85 51.70
  L 9.46 62.09
  A 1.13 1.12 -1.4 0 1 8.42 63.17
  L 4.71 63.47
  Q 4.17 63.51 4.18 64.05
  L 4.38 79.92
  Q 4.39 80.57 5.04 80.64
  L 7.59 80.89
  A 1.91 1.91 0.0 0 1 9.29 82.59
  L 10.24 92.05
  Q 10.29 92.57 10.80 92.62
  L 14.72 93.05"
/>
<path stroke="#f8e44b" vector-effect="non-scaling-stroke" d="
  M 14.72 93.05
  Q 15.13 93.81 15.20 93.27"
/>
<path stroke="#7a7830" vector-effect="non-scaling-stroke" d="
  M 15.20 93.27
  L 15.81 98.13
  Q 15.87 98.63 16.37 98.75
  Q 18.68 99.32 20.96 98.87"
/>
<path stroke="#f9ef5c" vector-effect="non-scaling-stroke" d="
  M 20.96 98.87
  Q 21.23 98.83 21.72 99.14"
/>
<path stroke="#7a7830" vector-effect="non-scaling-stroke" d="
  M 21.72 99.14
  L 21.38 99.12
  Q 20.99 99.11 21.00 99.50
  L 21.08 104.48
  Q 21.09 105.18 21.79 105.14
  L 26.74 104.90"
/>
<path stroke="#f9ef5c" vector-effect="non-scaling-stroke" d="
  M 26.74 104.90
  Q 26.74 104.50 26.92 105.01"
/>
<path stroke="#7a7830" vector-effect="non-scaling-stroke" d="
  M 26.92 105.01
  Q 26.43 107.82 26.89 110.62
  Q 26.97 111.14 27.50 111.14
  L 54.69 111.18
  Q 55.31 111.18 55.31 110.56
  L 55.30 105.68
  Q 55.30 105.16 55.82 105.16
  L 60.31 105.17
  Q 60.90 105.18 60.91 104.59
  L 61.00 99.20"
/>
<path stroke="#7a7830" vector-effect="non-scaling-stroke" d="
  M 61.00 99.20
  L 65.98 99.16
  Q 66.66 99.16 66.66 98.48
  L 66.73 93.91
  A 0.69 0.68 87.1 0 1 67.33 93.24
  L 70.98 92.81
  Q 71.69 92.72 71.77 92.01
  L 72.94 81.90
  Q 73.01 81.29 73.61 81.21
  L 77.12 80.69
  Q 77.83 80.59 77.83 79.87
  L 77.70 64.19
  Q 77.69 63.42 76.93 63.33
  L 73.13 62.91
  A 0.71 0.70 -79.7 0 0 72.37 63.44
  Q 72.34 63.56 72.33 63.71"
/>
<path stroke="#f9ef5c" vector-effect="non-scaling-stroke" d="
  M 72.33 63.71
  Q 71.85 63.09 72.39 63.00"
/>
<path stroke="#7a7830" vector-effect="non-scaling-stroke" d="
  M 72.39 63.00
  Q 71.70 63.53 72.46 62.77
  Q 72.62 62.61 72.62 62.38
  C 72.65 58.83 71.70 55.51 71.90 51.99
  Q 71.93 51.37 71.32 51.27
  L 68.99 50.89"
/>
<path stroke="#cce384" vector-effect="non-scaling-stroke" d="
  M 68.99 50.89
  Q 66.87 51.16 66.71 50.05"
/>
<path stroke="#7a7830" vector-effect="non-scaling-stroke" d="
  M 66.71 50.05
  L 66.59 45.70
  Q 66.57 45.16 66.03 45.15
  L 61.08 45.07"
/>
<path stroke="#f9ef5c" vector-effect="non-scaling-stroke" d="
  M 61.08 45.07
  L 57.53 44.87"
/>
<path stroke="#7a7830" vector-effect="non-scaling-stroke" d="
  M 57.53 44.87
  L 60.16 44.90
  Q 61.02 44.91 61.01 44.05
  L 60.97 39.55
  Q 60.96 38.75 60.16 38.77
  L 55.23 38.93"
/>
<path stroke="#f9ef5c" vector-effect="non-scaling-stroke" d="
  M 55.23 38.93
  Q 54.87 39.15 54.04 38.89"
/>
<path stroke="#7a7830" vector-effect="non-scaling-stroke" d="
  M 54.04 38.89
  Q 54.68 38.97 55.02 38.82
  Q 55.33 38.67 55.32 38.05
  Q 55.29 36.12 55.34 34.21"
/>
<path stroke="#cce384" vector-effect="non-scaling-stroke" d="
  M 55.34 34.21
  Q 55.31 33.17 56.00 33.16
  Q 57.29 33.14 59.66 32.82"
/>
<path stroke="#7a7830" vector-effect="non-scaling-stroke" d="
  M 59.66 32.82
  Q 61.71 33.82 60.84 27.05"
/>
<path stroke="#cce384" vector-effect="non-scaling-stroke" d="
  M 60.84 27.05
  L 65.57 27.41
  Q 66.09 27.45 66.39 27.02
  Q 66.64 26.65 66.63 26.49"
/>
<path stroke="#7a7830" vector-effect="non-scaling-stroke" d="
  M 66.63 26.49
  L 66.46 21.67
  Q 66.44 21.12 65.89 21.04
  L 64.96 20.90"
/>
<path stroke="#cce384" vector-effect="non-scaling-stroke" d="
  M 64.96 20.90
  L 61.05 20.68"
/>
<path stroke="#7a7830" vector-effect="non-scaling-stroke" d="
  M 61.05 20.68
  L 60.99 14.82"
/>
<path stroke="#7a7830" vector-effect="non-scaling-stroke" d="
  M 60.99 14.82
  L 65.90 14.86
  Q 66.41 14.87 66.49 14.36
  Q 66.95 11.50 66.24 8.88"
/>
<path stroke="#cce384" vector-effect="non-scaling-stroke" d="
  M 66.24 8.88
  L 60.97 8.79"
/>
<path stroke="#7a7830" vector-effect="non-scaling-stroke" d="
  M 60.97 8.79
  L 60.81 3.34
  Q 60.80 2.84 60.29 2.85
  L 50.47 3.13
  Q 49.93 3.14 49.90 3.68
  L 49.60 8.75"
/>
<path stroke="#cce384" vector-effect="non-scaling-stroke" d="
  M 49.60 8.75
  L 48.77 9.24"
/>
<path stroke="#7a7830" vector-effect="non-scaling-stroke" d="
  M 48.77 9.24
  L 44.76 9.41
  Q 44.20 9.43 44.12 9.99
  L 43.59 13.90
  A 1.47 1.47 0.0 0 1 42.11 15.17
  L 38.91 15.12
  Q 38.34 15.11 38.26 14.55
  L 37.76 10.52
  A 1.40 1.38 -1.5 0 0 36.47 9.31
  L 33.79 9.13"
/>
<path stroke="#cce384" vector-effect="non-scaling-stroke" d="
  M 33.79 9.13
  Q 32.68 9.22 32.20 7.82"
/>
<path stroke="#7a7830" vector-effect="non-scaling-stroke" d="
  M 32.20 7.82
  L 32.03 3.90
  Q 32.00 3.12 31.21 3.09
  L 21.72 2.84
  Q 21.13 2.82 21.12 3.41
  L 20.99 8.84"
/>
<path stroke="#536b54" vector-effect="non-scaling-stroke" d="
  M 32.20 7.82
  Q 27.21 9.26 20.99 8.84"
/>
<path stroke="#536b54" vector-effect="non-scaling-stroke" d="
  M 33.79 9.13
  Q 32.24 10.93 32.88 13.76
  Q 32.99 14.28 33.52 14.29
  L 36.18 14.35
  A 2.32 2.31 -3.7 0 1 38.41 16.30
  L 38.91 19.43
  A 0.89 0.89 0.0 0 0 39.56 20.15
  Q 41.17 20.58 42.64 20.12
  Q 43.16 19.95 43.25 19.40
  Q 43.45 18.19 43.47 16.87
  C 43.51 14.44 46.51 14.17 48.29 14.48
  Q 49.41 14.67 49.27 13.54
  Q 49.05 11.77 49.28 9.79
  Q 49.30 9.54 49.15 9.36
  Q 48.99 9.16 48.77 9.24"
/>
<path stroke="#536b54" vector-effect="non-scaling-stroke" d="
  M 66.24 8.88
  L 61.60 9.01
  Q 61.06 9.03 61.05 9.57
  L 60.99 14.82"
/>
<path stroke="#536b54" vector-effect="non-scaling-stroke" d="
  M 60.99 14.82
  L 55.82 14.88
  Q 55.46 14.88 55.46 15.25
  L 55.52 20.26
  A 0.40 0.39 89.2 0 0 55.91 20.65
  L 61.05 20.68"
/>
<path stroke="#536b54" vector-effect="non-scaling-stroke" d="
  M 64.96 20.90
  L 61.91 20.86
  Q 61.01 20.85 61.00 21.75
  L 60.98 25.84
  Q 60.97 26.82 61.96 26.77
  L 66.63 26.49"
/>
<path stroke="#536b54" vector-effect="non-scaling-stroke" d="
  M 60.84 27.05
  Q 61.45 27.22 60.62 26.96
  Q 60.48 26.91 60.34 26.94
  Q 58.24 27.27 56.33 27.07
  Q 55.63 26.99 55.59 27.69
  L 55.36 31.84
  Q 55.31 32.76 56.23 32.77
  L 59.66 32.82"
/>
<path stroke="#536b54" vector-effect="non-scaling-stroke" d="
  M 55.34 34.21
  L 55.35 33.69
  Q 55.36 33.12 54.79 33.12
  L 27.73 33.25
  Q 27.18 33.26 27.12 33.79
  L 26.83 36.21"
/>
<path stroke="#536b54" vector-effect="non-scaling-stroke" d="
  M 25.89 32.90
  Q 26.99 31.57 26.51 27.97
  A 0.85 0.84 -2.7 0 0 25.69 27.23
  L 21.15 27.05"
/>
<path stroke="#536b54" vector-effect="non-scaling-stroke" d="
  M 15.41 20.92
  L 15.45 26.32
  A 0.38 0.38 0.0 0 0 15.82 26.70
  L 20.76 26.80
  Q 21.07 26.81 21.07 26.49
  L 20.98 21.44
  Q 20.97 20.86 21.56 20.86
  L 25.50 20.86
  Q 26.44 20.86 26.49 19.92
  L 26.69 15.89
  Q 26.74 14.89 25.73 14.91
  L 21.06 15.03"
/>
<path stroke="#536b54" vector-effect="non-scaling-stroke" d="
  M 15.45 14.85
  L 20.48 14.77
  Q 21.00 14.76 21.00 14.24
  L 20.99 8.84"
/>
<path stroke="#80772c" vector-effect="non-scaling-stroke" d="
  M 54.04 38.89
  L 40.45 38.63"
/>
<path stroke="#7f6c1b" vector-effect="non-scaling-stroke" d="
  M 40.45 38.63
  L 27.33 39.20
  Q 26.82 39.22 26.76 39.73
  L 26.15 44.73"
/>
<path stroke="#80772c" vector-effect="non-scaling-stroke" d="
  M 26.15 44.73
  L 21.72 44.93"
/>
<path stroke="#536b54" vector-effect="non-scaling-stroke" d="
  M 60.97 8.79
  L 49.60 8.75"
/>
<path stroke="#80772c" vector-effect="non-scaling-stroke" d="
  M 55.23 38.93
  L 55.53 44.30
  Q 55.56 44.85 56.11 44.86
  L 57.53 44.87"
/>
<path stroke="#80772c" vector-effect="non-scaling-stroke" d="
  M 61.08 45.07
  L 61.11 50.32
  Q 61.11 50.86 61.65 50.86
  L 66.29 50.86"
/>
<path stroke="#d2e280" vector-effect="non-scaling-stroke" d="
  M 66.29 50.86
  L 67.25 61.27"
/>
<path stroke="#80772c" vector-effect="non-scaling-stroke" d="
  M 67.25 61.27
  Q 66.03 63.42 72.39 63.00"
/>
<path stroke="#80772c" vector-effect="non-scaling-stroke" d="
  M 72.33 63.71
  L 72.33 67.04"
/>
<path stroke="#fee347" vector-effect="non-scaling-stroke" d="
  M 72.33 67.04
  C 72.03 69.50 69.42 69.35 67.73 68.78
  A 0.86 0.85 -81.5 0 0 66.60 69.62
  L 66.80 74.57
  Q 66.83 75.19 67.44 75.16
  L 71.21 74.98
  A 0.88 0.87 6.7 0 1 72.09 76.09
  Q 71.90 76.81 72.61 77.48"
/>
<path stroke="#80772c" vector-effect="non-scaling-stroke" d="
  M 72.61 77.48
  L 72.31 80.03
  Q 72.25 80.56 71.79 80.83
  Q 69.91 81.92 67.80 81.64
  A 0.43 0.42 -84.4 0 0 67.32 82.04
  L 66.52 92.56
  Q 66.48 93.10 65.94 93.11
  L 61.67 93.22
  A 0.65 0.65 0.0 0 0 61.04 93.86
  L 61.00 99.20"
/>
<path stroke="#80772c" vector-effect="non-scaling-stroke" d="
  M 61.00 99.20
  L 55.84 99.16
  A 0.53 0.53 0.0 0 0 55.31 99.67
  L 55.19 105.08"
/>
<path stroke="#fee347" vector-effect="non-scaling-stroke" d="
  M 55.19 105.08
  L 40.63 105.11
  A 2.25 2.24 -0.8 0 1 38.37 102.92
  L 38.30 100.16
  Q 38.27 99.05 37.16 99.05
  L 33.01 99.06
  Q 32.27 99.06 32.28 99.80
  L 32.34 103.59
  A 1.45 1.44 88.8 0 1 30.94 105.06
  L 28.29 105.12"
/>
<path stroke="#80772c" vector-effect="non-scaling-stroke" d="
  M 28.29 105.12
  L 26.92 105.01"
/>
<path stroke="#80772c" vector-effect="non-scaling-stroke" d="
  M 26.74 104.90
  L 26.71 99.95
  Q 26.70 99.20 25.95 99.19
  L 21.72 99.14"
/>
<path stroke="#80772c" vector-effect="non-scaling-stroke" d="
  M 20.96 98.87
  Q 21.32 95.65 20.61 93.07"
/>
<path stroke="#fee347" vector-effect="non-scaling-stroke" d="
  M 20.61 93.07
  L 20.95 88.25
  Q 21.06 86.69 19.52 86.93
  Q 17.78 87.20 16.24 86.84
  Q 15.74 86.72 15.47 86.28
  Q 14.73 85.04 14.89 83.55"
/>
<path stroke="#80772c" vector-effect="non-scaling-stroke" d="
  M 14.89 83.55
  Q 15.09 82.75 14.99 82.00
  Q 14.91 81.46 14.37 81.45
  L 11.21 81.40"
/>
<path stroke="#ffde96" vector-effect="non-scaling-stroke" d="
  M 11.21 81.40
  L 20.10 81.06
  Q 20.77 81.04 20.85 80.37
  Q 21.07 78.52 20.98 76.24
  Q 20.97 76.02 20.87 75.83
  Q 20.78 75.67 20.61 75.63
  Q 19.60 75.38 20.63 75.30
  Q 22.18 75.18 23.70 75.11"
/>
<path stroke="#80772c" vector-effect="non-scaling-stroke" d="
  M 23.70 75.11
  Q 24.92 74.90 25.93 75.14
  A 0.64 0.64 0.0 0 0 26.71 74.50
  L 26.45 63.42"
/>
<path stroke="#fee347" vector-effect="non-scaling-stroke" d="
  M 26.45 63.42
  Q 26.94 61.21 25.92 58.42
  A 2.43 2.43 0.0 0 0 23.30 56.84
  Q 22.77 56.91 22.00 57.13
  Q 21.52 57.26 21.40 57.74
  Q 20.72 60.54 21.21 63.24"
/>
<path stroke="#fff7ac" vector-effect="non-scaling-stroke" d="
  M 21.21 63.24
  Q 18.81 62.72 16.34 63.28
  A 0.71 0.70 -4.6 0 0 15.80 63.91
  L 15.41 68.97"
/>
<path stroke="#fee347" vector-effect="non-scaling-stroke" d="
  M 15.41 68.97
  L 10.66 68.75
  Q 10.15 68.72 9.91 68.29
  Q 9.37 67.34 9.68 65.77"
/>
<path stroke="#80772c" vector-effect="non-scaling-stroke" d="
  M 9.68 65.77
  Q 9.04 63.26 10.60 63.05
  Q 12.50 62.80 14.51 62.92
  Q 14.96 62.94 14.98 62.50
  L 15.35 51.67
  Q 15.37 50.97 16.08 50.95
  L 20.30 50.82
  Q 20.87 50.80 20.88 50.24
  L 21.04 45.06"
/>
<path stroke="#fee347" vector-effect="non-scaling-stroke" d="
  M 40.45 38.63
  Q 38.27 38.50 38.03 43.32
  Q 37.97 44.53 36.76 44.43
  C 33.53 44.14 31.74 44.47 32.15 48.30
  Q 32.34 50.05 30.60 50.33
  L 28.04 50.73
  Q 26.26 51.01 26.51 49.23
  Q 26.77 47.37 26.15 44.73"
/>
<path stroke="#fed384" vector-effect="non-scaling-stroke" d="
  M 15.67 75.08
  L 9.68 75.38"
/>
<path stroke="#7f6c1b" vector-effect="non-scaling-stroke" d="
  M 9.68 65.77
  L 9.68 75.38"
/>
<path stroke="#80676a" vector-effect="non-scaling-stroke" d="
  M 9.68 75.38
  Q 8.69 81.55 11.21 81.40"
/>
<path stroke="#7f6c1b" vector-effect="non-scaling-stroke" d="
  M 14.89 83.55
  Q 14.76 87.63 15.28 91.76
  Q 15.44 92.98 14.72 93.05"
/>
<path stroke="#536b54" vector-effect="non-scaling-stroke" d="
  M 68.99 50.89
  Q 65.58 50.34 67.36 57.25
  Q 67.58 58.09 67.25 61.27"
/>
<path stroke="#80676a" vector-effect="non-scaling-stroke" d="
  M 23.70 75.11
  L 15.67 75.08"
/>
<path stroke="#7f6c1b" vector-effect="non-scaling-stroke" d="
  M 15.67 75.08
  L 15.41 68.97"
/>
<path stroke="#7f6c1b" vector-effect="non-scaling-stroke" d="
  M 26.45 63.42
  L 21.21 63.24"
/>
<path stroke="#7f6c1b" vector-effect="non-scaling-stroke" d="
  M 55.19 105.08
  L 28.29 105.12"
/>
<path stroke="#7f6c1b" vector-effect="non-scaling-stroke" d="
  M 20.61 93.07
  L 15.20 93.27"
/>
<path stroke="#536b54" vector-effect="non-scaling-stroke" d="
  M 66.71 50.05
  Q 66.86 50.26 66.29 50.86"
/>
<path stroke="#808080" vector-effect="non-scaling-stroke" d="
  M 21.21 63.24
  L 20.85 68.58
  Q 20.81 69.12 20.27 69.11
  L 15.41 68.97"
/>
<path stroke="#7f6c1b" vector-effect="non-scaling-stroke" d="
  M 72.61 77.48
  L 72.33 67.04"
/>
<path stroke="#f9f8b0" vector-effect="non-scaling-stroke" d="
  M 123.37 48.68
  A 0.60 0.60 0.0 0 1 122.76 48.07
  L 122.81 43.59
  A 0.60 0.60 0.0 0 0 122.21 42.98
  L 99.38 43.02
  A 0.60 0.60 0.0 0 0 98.78 43.63
  L 98.86 47.98
  A 0.60 0.60 0.0 0 1 98.27 48.59
  L 93.86 48.63
  A 0.60 0.60 0.0 0 0 93.27 49.23
  L 93.18 83.40
  A 0.60 0.60 0.0 0 0 93.78 84.00
  L 104.76 83.99
  A 0.60 0.60 0.0 0 0 105.36 83.39
  L 105.27 72.94
  A 0.60 0.60 0.0 0 1 105.87 72.34
  L 115.93 72.34
  A 0.60 0.60 0.0 0 1 116.53 72.94
  L 116.48 83.42
  A 0.60 0.60 0.0 0 0 117.08 84.02
  L 128.16 83.99
  A 0.60 0.60 0.0 0 0 128.76 83.39
  L 128.74 49.21
  A 0.60 0.60 0.0 0 0 128.13 48.61
  L 123.37 48.68"
/>
<path stroke="#f9f8b0" vector-effect="non-scaling-stroke" d="
  M 146.80 54.69
  A 0.50 0.50 0.0 0 1 146.29 54.18
  L 146.39 43.52
  A 0.50 0.50 0.0 0 0 145.89 43.02
  L 134.71 42.98
  A 0.50 0.50 0.0 0 0 134.21 43.48
  L 134.19 83.51
  A 0.50 0.50 0.0 0 0 134.69 84.01
  L 140.01 83.96
  A 0.50 0.50 0.0 0 0 140.51 83.46
  L 140.50 67.11
  A 0.50 0.50 0.0 0 1 141.01 66.61
  L 145.23 66.74
  A 0.50 0.50 0.0 0 1 145.72 67.24
  L 145.71 77.86
  A 0.50 0.50 0.0 0 0 146.21 78.36
  L 157.00 78.38
  A 0.50 0.50 0.0 0 1 157.50 78.88
  L 157.49 83.50
  A 0.50 0.50 0.0 0 0 157.99 84.00
  L 169.24 83.99
  A 0.50 0.50 0.0 0 0 169.74 83.49
  L 169.73 43.51
  A 0.50 0.50 0.0 0 0 169.23 43.01
  L 158.00 42.99
  A 0.50 0.50 0.0 0 0 157.50 43.49
  L 157.52 65.71
  A 0.50 0.50 0.0 0 1 157.02 66.21
  L 152.60 66.25
  A 0.50 0.50 0.0 0 1 152.10 65.74
  L 152.25 55.18
  A 0.50 0.50 0.0 0 0 151.75 54.67
  L 146.80 54.69"
/>
<path stroke="#f9f8b0" vector-effect="non-scaling-stroke" d="
  M 180.93 48.12
  A 0.51 0.51 0.0 0 1 180.41 48.65
  L 175.73 48.61
  A 0.51 0.51 0.0 0 0 175.22 49.11
  L 175.19 83.50
  A 0.51 0.51 0.0 0 0 175.70 84.01
  L 186.85 84.00
  A 0.51 0.51 0.0 0 0 187.36 83.49
  L 187.32 72.85
  A 0.51 0.51 0.0 0 1 187.83 72.34
  L 198.00 72.36
  A 0.51 0.51 0.0 0 1 198.51 72.87
  L 198.49 83.49
  A 0.51 0.51 0.0 0 0 199.00 84.00
  L 210.24 83.99
  A 0.51 0.51 0.0 0 0 210.75 83.48
  L 210.72 49.14
  A 0.51 0.51 0.0 0 0 210.20 48.63
  L 205.27 48.69
  A 0.51 0.51 0.0 0 1 204.76 48.18
  L 204.80 43.51
  A 0.51 0.51 0.0 0 0 204.29 42.99
  L 181.25 43.02
  A 0.51 0.51 0.0 0 0 180.74 43.55
  L 180.93 48.12"
/>
<path stroke="#f9f8b0" vector-effect="non-scaling-stroke" d="
  M 228.77 54.71
  A 0.50 0.50 0.0 0 1 228.27 54.21
  L 228.40 43.53
  A 0.50 0.50 0.0 0 0 227.90 43.02
  L 216.71 42.99
  A 0.50 0.50 0.0 0 0 216.21 43.49
  L 216.19 83.51
  A 0.50 0.50 0.0 0 0 216.70 84.01
  L 222.04 83.94
  A 0.50 0.50 0.0 0 0 222.53 83.44
  L 222.49 67.12
  A 0.50 0.50 0.0 0 1 223.01 66.61
  L 227.20 66.74
  A 0.50 0.50 0.0 0 1 227.68 67.23
  L 227.73 77.87
  A 0.50 0.50 0.0 0 0 228.22 78.37
  L 239.02 78.48
  A 0.50 0.50 0.0 0 1 239.51 78.98
  L 239.51 83.46
  A 0.50 0.50 0.0 0 0 240.01 83.96
  L 251.22 84.00
  A 0.50 0.50 0.0 0 0 251.72 83.50
  L 251.72 43.51
  A 0.50 0.50 0.0 0 0 251.22 43.01
  L 239.99 42.99
  A 0.50 0.50 0.0 0 0 239.49 43.49
  L 239.51 65.71
  A 0.50 0.50 0.0 0 1 239.01 66.21
  L 234.66 66.23
  A 0.50 0.50 0.0 0 1 234.15 65.72
  L 234.25 55.17
  A 0.50 0.50 0.0 0 0 233.74 54.67
  L 228.77 54.71"
/>
<path stroke="#f9f8b0" vector-effect="non-scaling-stroke" d="
  M 262.93 48.12
  A 0.54 0.54 0.0 0 1 262.38 48.68
  L 257.78 48.61
  A 0.54 0.54 0.0 0 0 257.23 49.15
  L 257.18 83.49
  A 0.54 0.54 0.0 0 0 257.72 84.03
  L 268.81 83.99
  A 0.54 0.54 0.0 0 0 269.35 83.45
  L 269.33 72.88
  A 0.54 0.54 0.0 0 1 269.87 72.34
  L 279.98 72.36
  A 0.54 0.54 0.0 0 1 280.52 72.90
  L 280.49 83.47
  A 0.54 0.54 0.0 0 0 281.03 84.01
  L 292.20 83.99
  A 0.54 0.54 0.0 0 0 292.74 83.45
  L 292.74 49.16
  A 0.54 0.54 0.0 0 0 292.19 48.62
  L 287.31 48.69
  A 0.54 0.54 0.0 0 1 286.76 48.15
  L 286.80 43.53
  A 0.54 0.54 0.0 0 0 286.26 42.99
  L 263.28 43.01
  A 0.54 0.54 0.0 0 0 262.74 43.57
  L 262.93 48.12"
/>
<path stroke="#f9f8b0" vector-effect="non-scaling-stroke" d="
  M 328.58 66.25
  A 0.46 0.46 0.0 0 1 328.12 65.77
  L 328.30 60.84
  A 0.46 0.46 0.0 0 0 327.84 60.36
  L 310.95 60.37
  A 0.46 0.46 0.0 0 1 310.49 59.91
  L 310.51 49.43
  A 0.46 0.46 0.0 0 1 310.97 48.97
  L 321.26 48.97
  A 0.46 0.46 0.0 0 1 321.72 49.44
  L 321.64 54.47
  A 0.46 0.46 0.0 0 0 322.10 54.94
  L 333.37 54.97
  A 0.46 0.46 0.0 0 0 333.83 54.50
  L 333.78 49.09
  A 0.46 0.46 0.0 0 0 333.31 48.63
  L 328.55 48.68
  A 0.46 0.46 0.0 0 1 328.09 48.21
  L 328.27 43.49
  A 0.46 0.46 0.0 0 0 327.81 43.01
  L 304.71 43.00
  A 0.46 0.46 0.0 0 0 304.25 43.46
  L 304.19 48.22
  A 0.46 0.46 0.0 0 1 303.73 48.67
  L 298.74 48.62
  A 0.46 0.46 0.0 0 0 298.28 49.07
  L 298.25 60.31
  A 0.46 0.46 0.0 0 0 298.71 60.77
  L 303.76 60.78
  A 0.46 0.46 0.0 0 1 304.22 61.24
  L 304.19 66.19
  A 0.46 0.46 0.0 0 0 304.65 66.65
  L 321.25 66.68
  A 0.46 0.46 0.0 0 1 321.71 67.14
  L 321.71 77.54
  A 0.46 0.46 0.0 0 1 321.25 78.00
  L 310.94 78.02
  A 0.46 0.46 0.0 0 1 310.48 77.56
  L 310.52 72.50
  A 0.46 0.46 0.0 0 0 310.06 72.04
  L 298.73 72.02
  A 0.46 0.46 0.0 0 0 298.27 72.48
  L 298.28 77.90
  A 0.46 0.46 0.0 0 0 298.74 78.36
  L 303.74 78.40
  A 0.46 0.46 0.0 0 1 304.20 78.87
  L 304.12 83.53
  A 0.46 0.46 0.0 0 0 304.58 84.00
  L 327.81 83.98
  A 0.46 0.46 0.0 0 0 328.27 83.51
  L 328.13 78.83
  A 0.46 0.46 0.0 0 1 328.60 78.35
  L 333.32 78.39
  A 0.46 0.46 0.0 0 0 333.78 77.93
  L 333.80 66.67
  A 0.46 0.46 0.0 0 0 333.34 66.21
  L 328.58 66.25"
/>
<path stroke="#f9f8b0" vector-effect="non-scaling-stroke" d="
  M 368.51 54.22
  A 0.45 0.45 0.0 0 1 368.06 54.67
  L 351.90 54.67
  A 0.45 0.45 0.0 0 1 351.45 54.22
  L 351.54 43.46
  A 0.45 0.45 0.0 0 0 351.09 43.01
  L 339.71 42.99
  A 0.45 0.45 0.0 0 0 339.26 43.44
  L 339.26 83.53
  A 0.45 0.45 0.0 0 0 339.72 83.98
  L 345.16 83.92
  A 0.45 0.45 0.0 0 0 345.60 83.47
  L 345.61 67.10
  A 0.45 0.45 0.0 0 1 346.07 66.65
  L 350.41 66.72
  A 0.45 0.45 0.0 0 1 350.85 67.17
  L 350.82 77.92
  A 0.45 0.45 0.0 0 0 351.27 78.37
  L 362.81 78.40
  A 0.45 0.45 0.0 0 0 363.26 77.95
  L 363.36 67.07
  A 0.45 0.45 0.0 0 1 363.81 66.63
  L 368.06 66.67
  A 0.45 0.45 0.0 0 1 368.50 67.12
  L 368.50 83.48
  A 0.45 0.45 0.0 0 0 368.95 83.93
  L 380.30 84.03
  A 0.45 0.45 0.0 0 0 380.75 83.58
  L 380.74 43.46
  A 0.45 0.45 0.0 0 0 380.29 43.01
  L 368.94 43.00
  A 0.45 0.45 0.0 0 0 368.49 43.45
  L 368.51 54.22"
/>
<path stroke="#f9f8b0" vector-effect="non-scaling-stroke" d="
  M 391.91 48.13
  A 0.54 0.54 0.0 0 1 391.36 48.69
  L 386.76 48.60
  A 0.54 0.54 0.0 0 0 386.21 49.14
  L 386.18 83.50
  A 0.54 0.54 0.0 0 0 386.72 84.04
  L 397.75 83.98
  A 0.54 0.54 0.0 0 0 398.29 83.44
  L 398.27 72.86
  A 0.54 0.54 0.0 0 1 398.81 72.32
  L 408.97 72.36
  A 0.54 0.54 0.0 0 1 409.51 72.90
  L 409.51 83.46
  A 0.54 0.54 0.0 0 0 410.05 84.00
  L 421.20 83.99
  A 0.54 0.54 0.0 0 0 421.74 83.45
  L 421.74 49.18
  A 0.54 0.54 0.0 0 0 421.20 48.64
  L 416.30 48.66
  A 0.54 0.54 0.0 0 1 415.76 48.12
  L 415.79 43.53
  A 0.54 0.54 0.0 0 0 415.25 42.99
  L 392.31 43.02
  A 0.54 0.54 0.0 0 0 391.77 43.58
  L 391.91 48.13"
/>
<path stroke="#f9f8b0" vector-effect="non-scaling-stroke" d="
  M 438.22 48.95
  A 0.49 0.49 0.0 0 1 438.71 49.44
  L 438.71 83.52
  A 0.49 0.49 0.0 0 0 439.20 84.01
  L 450.72 83.98
  A 0.49 0.49 0.0 0 0 451.21 83.49
  L 451.14 49.47
  A 0.49 0.49 0.0 0 1 451.63 48.98
  L 462.24 48.95
  A 0.49 0.49 0.0 0 0 462.73 48.46
  L 462.75 43.49
  A 0.49 0.49 0.0 0 0 462.26 43.00
  L 427.69 42.99
  A 0.49 0.49 0.0 0 0 427.20 43.48
  L 427.18 48.49
  A 0.49 0.49 0.0 0 0 427.67 48.98
  L 438.22 48.95"
/>
<path stroke="#f9f8b0" vector-effect="non-scaling-stroke" d="
  M 480.02 83.99
  A 0.35 0.35 0.0 0 0 480.37 83.64
  L 480.34 66.96
  A 0.35 0.35 0.0 0 1 480.69 66.61
  L 491.15 66.70
  A 0.35 0.35 0.0 0 1 491.50 67.05
  L 491.52 83.67
  A 0.35 0.35 0.0 0 0 491.87 84.02
  L 503.39 83.96
  A 0.35 0.35 0.0 0 0 503.74 83.61
  L 503.74 43.36
  A 0.35 0.35 0.0 0 0 503.39 43.01
  L 491.84 43.00
  A 0.35 0.35 0.0 0 0 491.49 43.35
  L 491.51 59.99
  A 0.35 0.35 0.0 0 1 491.16 60.34
  L 480.66 60.37
  A 0.35 0.35 0.0 0 1 480.31 60.02
  L 480.39 43.38
  A 0.35 0.35 0.0 0 0 480.04 43.03
  L 468.55 42.96
  A 0.35 0.35 0.0 0 0 468.20 43.31
  L 468.13 83.64
  A 0.35 0.35 0.0 0 0 468.48 83.99
  L 480.02 83.99"
/>
<path stroke="#fee347" vector-effect="non-scaling-stroke" d="
  M 49.67 46.03
  A 1.06 1.06 0.0 0 0 48.61 44.92
  L 44.88 44.91
  A 1.06 1.06 0.0 0 0 43.81 45.94
  L 43.72 49.93
  A 1.06 1.06 0.0 0 0 44.85 51.01
  L 48.53 50.77
  A 1.06 1.06 0.0 0 0 49.52 49.76
  L 49.67 46.03"
/>
<path stroke="#80772c" vector-effect="non-scaling-stroke" d="
  M 55.62 63.29
  L 55.35 63.74"
/>
<path stroke="#fff7ac" vector-effect="non-scaling-stroke" d="
  M 55.35 63.74
  Q 55.28 63.56 55.16 63.40
  Q 54.91 63.08 54.50 63.10
  L 49.71 63.38"
/>
<path stroke="#fee347" vector-effect="non-scaling-stroke" d="
  M 49.71 63.38
  Q 47.13 62.68 44.30 63.11
  Q 43.81 63.19 43.79 63.69
  L 43.64 68.25
  A 0.85 0.85 0.0 0 1 42.79 69.07
  L 32.78 69.15"
/>
<path stroke="#80772c" vector-effect="non-scaling-stroke" d="
  M 32.78 69.15
  Q 31.92 71.38 32.49 74.69
  Q 32.56 75.12 33.00 75.12
  L 43.08 75.10
  Q 43.62 75.10 43.65 74.55
  L 43.86 69.55"
/>
<path stroke="#fee347" vector-effect="non-scaling-stroke" d="
  M 43.86 69.55
  L 48.72 68.93
  Q 49.08 68.88 49.28 68.57
  Q 49.41 68.37 49.60 68.27"
/>
<path stroke="#fff7ac" vector-effect="non-scaling-stroke" d="
  M 49.60 68.27
  L 49.76 68.63
  Q 49.94 69.03 50.38 69.03
  L 55.31 69.08"
/>
<path stroke="#80772c" vector-effect="non-scaling-stroke" d="
  M 55.31 69.08
  L 50.29 69.12
  A 0.64 0.64 0.0 0 0 49.66 69.76
  L 49.69 74.48
  Q 49.70 75.05 50.27 75.05
  L 59.21 75.08"
/>
<path stroke="#ffde96" vector-effect="non-scaling-stroke" d="
  M 59.21 75.08
  L 56.40 75.12
  Q 55.24 75.14 55.27 76.30
  L 55.37 80.16
  A 0.91 0.91 0.0 0 0 56.28 81.05
  L 64.94 81.05
  Q 66.68 81.05 66.72 79.31
  L 66.79 76.48
  A 1.31 1.31 0.0 0 0 65.48 75.14
  L 60.82 75.14"
/>
<path stroke="#80772c" vector-effect="non-scaling-stroke" d="
  M 60.82 75.14
  L 60.74 62.94"
/>
<path stroke="#fee347" vector-effect="non-scaling-stroke" d="
  M 60.74 62.94
  L 60.86 57.42
  Q 60.87 56.76 60.22 56.80
  L 56.31 57.07
  Q 55.62 57.11 55.50 57.79
  Q 54.98 60.51 55.62 63.29"
/>
<path stroke="#7f6c1b" vector-effect="non-scaling-stroke" d="
  M 60.74 62.94
  L 55.62 63.29"
/>
<path stroke="#80676a" vector-effect="non-scaling-stroke" d="
  M 60.82 75.14
  L 59.21 75.08"
/>
<path stroke="#808080" vector-effect="non-scaling-stroke" d="
  M 55.35 63.74
  L 55.31 69.08"
/>
<path stroke="#feec9a" vector-effect="non-scaling-stroke" d="
  M 49.71 63.38
  L 49.60 68.27"
/>
<path stroke="#7f6c1b" vector-effect="non-scaling-stroke" d="
  M 43.86 69.55
  L 32.78 69.15"
/>
<path stroke="#fee347" vector-effect="non-scaling-stroke" d="
  M 33.31 57.16
  A 0.78 0.78 0.0 0 0 32.58 57.87
  L 32.19 62.34
  A 0.78 0.78 0.0 0 0 32.98 63.19
  L 37.53 63.11
  A 0.78 0.78 0.0 0 0 38.30 62.31
  L 38.23 57.70
  A 0.78 0.78 0.0 0 0 37.41 56.94
  L 33.31 57.16"
/>
<path stroke="#fee347" vector-effect="non-scaling-stroke" d="
  M 32.3721 81.8451
  A 0.77 0.77 0.0 0 0 31.6061 81.0710
  L 27.4062 81.0490
  A 0.77 0.77 0.0 0 0 26.6321 81.8150
  L 26.6079 86.4349
  A 0.77 0.77 0.0 0 0 27.3739 87.2090
  L 31.5738 87.2310
  A 0.77 0.77 0.0 0 0 32.3479 86.4650
  L 32.3721 81.8451"
/>
<path stroke="#fee347" vector-effect="non-scaling-stroke" d="
  M 49.6341 81.7852
  A 0.76 0.76 0.0 0 0 48.8754 81.0238
  L 44.4754 81.0162
  A 0.76 0.76 0.0 0 0 43.7141 81.7748
  L 43.7059 86.4548
  A 0.76 0.76 0.0 0 0 44.4646 87.2162
  L 48.8646 87.2238
  A 0.76 0.76 0.0 0 0 49.6259 86.4652
  L 49.6341 81.7852"
/>
<path stroke="#fee347" vector-effect="non-scaling-stroke" d="
  M 60.89 87.72
  A 0.77 0.77 0.0 0 0 60.12 87.00
  L 56.08 87.01
  A 0.77 0.77 0.0 0 0 55.31 87.76
  L 55.21 92.48
  A 0.77 0.77 0.0 0 0 56.00 93.26
  L 60.45 93.12
  A 0.77 0.77 0.0 0 0 61.20 92.29
  L 60.89 87.72"
/>
<path stroke="#fee347" vector-effect="non-scaling-stroke" d="
  M 49.6683 93.7004
  A 0.72 0.72 0.0 0 0 48.9508 92.9779
  L 44.4509 92.9622
  A 0.72 0.72 0.0 0 0 43.7284 93.6796
  L 43.7117 98.4596
  A 0.72 0.72 0.0 0 0 44.4292 99.1821
  L 48.9291 99.1978
  A 0.72 0.72 0.0 0 0 49.6516 98.4804
  L 49.6683 93.7004"
/>
<path stroke="#f9f8b0" vector-effect="non-scaling-stroke" d="
  M 116.5144 49.3298
  A 0.35 0.35 0.0 0 0 116.1650 48.9791
  L 105.7051 48.9609
  A 0.35 0.35 0.0 0 0 105.3544 49.3103
  L 105.3256 65.8502
  A 0.35 0.35 0.0 0 0 105.6750 66.2009
  L 116.1349 66.2191
  A 0.35 0.35 0.0 0 0 116.4856 65.8697
  L 116.5144 49.3298"
/>
<path stroke="#f9f8b0" vector-effect="non-scaling-stroke" d="
  M 198.50 49.27
  A 0.30 0.30 0.0 0 0 198.20 48.97
  L 187.64 48.97
  A 0.30 0.30 0.0 0 0 187.34 49.27
  L 187.34 65.93
  A 0.30 0.30 0.0 0 0 187.64 66.23
  L 198.20 66.23
  A 0.30 0.30 0.0 0 0 198.50 65.93
  L 198.50 49.27"
/>
<path stroke="#f9f8b0" vector-effect="non-scaling-stroke" d="
  M 280.50 49.33
  A 0.35 0.35 0.0 0 0 280.15 48.98
  L 269.69 48.98
  A 0.35 0.35 0.0 0 0 269.34 49.33
  L 269.34 65.87
  A 0.35 0.35 0.0 0 0 269.69 66.22
  L 280.15 66.22
  A 0.35 0.35 0.0 0 0 280.50 65.87
  L 280.50 49.33"
/>
<path stroke="#f9f8b0" vector-effect="non-scaling-stroke" d="
  M 409.50 49.32
  A 0.35 0.35 0.0 0 0 409.15 48.97
  L 398.69 48.97
  A 0.35 0.35 0.0 0 0 398.34 49.32
  L 398.34 65.86
  A 0.35 0.35 0.0 0 0 398.69 66.21
  L 409.15 66.21
  A 0.35 0.35 0.0 0 0 409.50 65.86
  L 409.50 49.32"
/>
</g>
<path fill="#f3f060" d="
  M 0.00 0.00
  L 504.00 0.00
  L 504.00 116.00
  L 0.00 116.00
  L 0.00 0.00
  Z
  M 20.99 8.84
  L 16.00 8.97
  Q 15.47 8.98 15.47 9.51
  L 15.45 14.85
  L 21.06 15.03
  L 20.98 20.29
  A 0.62 0.62 0.0 0 1 20.36 20.90
  L 15.41 20.92
  L 15.41 26.54
  A 0.53 0.52 83.7 0 0 16.04 27.05
  Q 18.37 26.59 21.15 27.05
  Q 20.70 30.09 21.38 32.45
  Q 21.52 32.94 22.02 32.85
  Q 23.68 32.56 25.89 32.90
  Q 27.03 33.80 26.83 36.21
  L 26.53 38.49
  Q 26.46 38.98 25.97 38.97
  L 21.88 38.91
  A 0.75 0.74 1.6 0 0 21.12 39.62
  L 20.95 44.25
  A 0.58 0.57 8.8 0 0 21.38 44.83
  L 21.72 44.93
  L 21.04 45.06
  L 16.17 45.06
  Q 15.57 45.06 15.55 45.66
  L 15.40 50.28
  A 0.69 0.69 0.0 0 1 14.72 50.95
  L 10.55 51.02
  Q 9.87 51.03 9.85 51.70
  L 9.46 62.09
  A 1.13 1.12 -1.4 0 1 8.42 63.17
  L 4.71 63.47
  Q 4.17 63.51 4.18 64.05
  L 4.38 79.92
  Q 4.39 80.57 5.04 80.64
  L 7.59 80.89
  A 1.91 1.91 0.0 0 1 9.29 82.59
  L 10.24 92.05
  Q 10.29 92.57 10.80 92.62
  L 14.72 93.05
  Q 15.13 93.81 15.20 93.27
  L 15.81 98.13
  Q 15.87 98.63 16.37 98.75
  Q 18.68 99.32 20.96 98.87
  Q 21.23 98.83 21.72 99.14
  L 21.38 99.12
  Q 20.99 99.11 21.00 99.50
  L 21.08 104.48
  Q 21.09 105.18 21.79 105.14
  L 26.74 104.90
  Q 26.74 104.50 26.92 105.01
  Q 26.43 107.82 26.89 110.62
  Q 26.97 111.14 27.50 111.14
  L 54.69 111.18
  Q 55.31 111.18 55.31 110.56
  L 55.30 105.68
  Q 55.30 105.16 55.82 105.16
  L 60.31 105.17
  Q 60.90 105.18 60.91 104.59
  L 61.00 99.20
  L 65.98 99.16
  Q 66.66 99.16 66.66 98.48
  L 66.73 93.91
  A 0.69 0.68 87.1 0 1 67.33 93.24
  L 70.98 92.81
  Q 71.69 92.72 71.77 92.01
  L 72.94 81.90
  Q 73.01 81.29 73.61 81.21
  L 77.12 80.69
  Q 77.83 80.59 77.83 79.87
  L 77.70 64.19
  Q 77.69 63.42 76.93 63.33
  L 73.13 62.91
  A 0.71 0.70 -79.7 0 0 72.37 63.44
  Q 72.34 63.56 72.33 63.71
  Q 71.85 63.09 72.39 63.00
  Q 71.70 63.53 72.46 62.77
  Q 72.62 62.61 72.62 62.38
  C 72.65 58.83 71.70 55.51 71.90 51.99
  Q 71.93 51.37 71.32 51.27
  L 68.99 50.89
  Q 66.87 51.16 66.71 50.05
  L 66.59 45.70
  Q 66.57 45.16 66.03 45.15
  L 61.08 45.07
  L 57.53 44.87
  L 60.16 44.90
  Q 61.02 44.91 61.01 44.05
  L 60.97 39.55
  Q 60.96 38.75 60.16 38.77
  L 55.23 38.93
  Q 54.87 39.15 54.04 38.89
  Q 54.68 38.97 55.02 38.82
  Q 55.33 38.67 55.32 38.05
  Q 55.29 36.12 55.34 34.21
  Q 55.31 33.17 56.00 33.16
  Q 57.29 33.14 59.66 32.82
  Q 61.71 33.82 60.84 27.05
  L 65.57 27.41
  Q 66.09 27.45 66.39 27.02
  Q 66.64 26.65 66.63 26.49
  L 66.46 21.67
  Q 66.44 21.12 65.89 21.04
  L 64.96 20.90
  L 61.05 20.68
  L 60.99 14.82
  L 65.90 14.86
  Q 66.41 14.87 66.49 14.36
  Q 66.95 11.50 66.24 8.88
  L 60.97 8.79
  L 60.81 3.34
  Q 60.80 2.84 60.29 2.85
  L 50.47 3.13
  Q 49.93 3.14 49.90 3.68
  L 49.60 8.75
  L 48.77 9.24
  L 44.76 9.41
  Q 44.20 9.43 44.12 9.99
  L 43.59 13.90
  A 1.47 1.47 0.0 0 1 42.11 15.17
  L 38.91 15.12
  Q 38.34 15.11 38.26 14.55
  L 37.76 10.52
  A 1.40 1.38 -1.5 0 0 36.47 9.31
  L 33.79 9.13
  Q 32.68 9.22 32.20 7.82
  L 32.03 3.90
  Q 32.00 3.12 31.21 3.09
  L 21.72 2.84
  Q 21.13 2.82 21.12 3.41
  L 20.99 8.84
  Z
  M 123.37 48.68
  A 0.60 0.60 0.0 0 1 122.76 48.07
  L 122.81 43.59
  A 0.60 0.60 0.0 0 0 122.21 42.98
  L 99.38 43.02
  A 0.60 0.60 0.0 0 0 98.78 43.63
  L 98.86 47.98
  A 0.60 0.60 0.0 0 1 98.27 48.59
  L 93.86 48.63
  A 0.60 0.60 0.0 0 0 93.27 49.23
  L 93.18 83.40
  A 0.60 0.60 0.0 0 0 93.78 84.00
  L 104.76 83.99
  A 0.60 0.60 0.0 0 0 105.36 83.39
  L 105.27 72.94
  A 0.60 0.60 0.0 0 1 105.87 72.34
  L 115.93 72.34
  A 0.60 0.60 0.0 0 1 116.53 72.94
  L 116.48 83.42
  A 0.60 0.60 0.0 0 0 117.08 84.02
  L 128.16 83.99
  A 0.60 0.60 0.0 0 0 128.76 83.39
  L 128.74 49.21
  A 0.60 0.60 0.0 0 0 128.13 48.61
  L 123.37 48.68
  Z
  M 146.80 54.69
  A 0.50 0.50 0.0 0 1 146.29 54.18
  L 146.39 43.52
  A 0.50 0.50 0.0 0 0 145.89 43.02
  L 134.71 42.98
  A 0.50 0.50 0.0 0 0 134.21 43.48
  L 134.19 83.51
  A 0.50 0.50 0.0 0 0 134.69 84.01
  L 140.01 83.96
  A 0.50 0.50 0.0 0 0 140.51 83.46
  L 140.50 67.11
  A 0.50 0.50 0.0 0 1 141.01 66.61
  L 145.23 66.74
  A 0.50 0.50 0.0 0 1 145.72 67.24
  L 145.71 77.86
  A 0.50 0.50 0.0 0 0 146.21 78.36
  L 157.00 78.38
  A 0.50 0.50 0.0 0 1 157.50 78.88
  L 157.49 83.50
  A 0.50 0.50 0.0 0 0 157.99 84.00
  L 169.24 83.99
  A 0.50 0.50 0.0 0 0 169.74 83.49
  L 169.73 43.51
  A 0.50 0.50 0.0 0 0 169.23 43.01
  L 158.00 42.99
  A 0.50 0.50 0.0 0 0 157.50 43.49
  L 157.52 65.71
  A 0.50 0.50 0.0 0 1 157.02 66.21
  L 152.60 66.25
  A 0.50 0.50 0.0 0 1 152.10 65.74
  L 152.25 55.18
  A 0.50 0.50 0.0 0 0 151.75 54.67
  L 146.80 54.69
  Z
  M 180.93 48.12
  A 0.51 0.51 0.0 0 1 180.41 48.65
  L 175.73 48.61
  A 0.51 0.51 0.0 0 0 175.22 49.11
  L 175.19 83.50
  A 0.51 0.51 0.0 0 0 175.70 84.01
  L 186.85 84.00
  A 0.51 0.51 0.0 0 0 187.36 83.49
  L 187.32 72.85
  A 0.51 0.51 0.0 0 1 187.83 72.34
  L 198.00 72.36
  A 0.51 0.51 0.0 0 1 198.51 72.87
  L 198.49 83.49
  A 0.51 0.51 0.0 0 0 199.00 84.00
  L 210.24 83.99
  A 0.51 0.51 0.0 0 0 210.75 83.48
  L 210.72 49.14
  A 0.51 0.51 0.0 0 0 210.20 48.63
  L 205.27 48.69
  A 0.51 0.51 0.0 0 1 204.76 48.18
  L 204.80 43.51
  A 0.51 0.51 0.0 0 0 204.29 42.99
  L 181.25 43.02
  A 0.51 0.51 0.0 0 0 180.74 43.55
  L 180.93 48.12
  Z
  M 228.77 54.71
  A 0.50 0.50 0.0 0 1 228.27 54.21
  L 228.40 43.53
  A 0.50 0.50 0.0 0 0 227.90 43.02
  L 216.71 42.99
  A 0.50 0.50 0.0 0 0 216.21 43.49
  L 216.19 83.51
  A 0.50 0.50 0.0 0 0 216.70 84.01
  L 222.04 83.94
  A 0.50 0.50 0.0 0 0 222.53 83.44
  L 222.49 67.12
  A 0.50 0.50 0.0 0 1 223.01 66.61
  L 227.20 66.74
  A 0.50 0.50 0.0 0 1 227.68 67.23
  L 227.73 77.87
  A 0.50 0.50 0.0 0 0 228.22 78.37
  L 239.02 78.48
  A 0.50 0.50 0.0 0 1 239.51 78.98
  L 239.51 83.46
  A 0.50 0.50 0.0 0 0 240.01 83.96
  L 251.22 84.00
  A 0.50 0.50 0.0 0 0 251.72 83.50
  L 251.72 43.51
  A 0.50 0.50 0.0 0 0 251.22 43.01
  L 239.99 42.99
  A 0.50 0.50 0.0 0 0 239.49 43.49
  L 239.51 65.71
  A 0.50 0.50 0.0 0 1 239.01 66.21
  L 234.66 66.23
  A 0.50 0.50 0.0 0 1 234.15 65.72
  L 234.25 55.17
  A 0.50 0.50 0.0 0 0 233.74 54.67
  L 228.77 54.71
  Z
  M 262.93 48.12
  A 0.54 0.54 0.0 0 1 262.38 48.68
  L 257.78 48.61
  A 0.54 0.54 0.0 0 0 257.23 49.15
  L 257.18 83.49
  A 0.54 0.54 0.0 0 0 257.72 84.03
  L 268.81 83.99
  A 0.54 0.54 0.0 0 0 269.35 83.45
  L 269.33 72.88
  A 0.54 0.54 0.0 0 1 269.87 72.34
  L 279.98 72.36
  A 0.54 0.54 0.0 0 1 280.52 72.90
  L 280.49 83.47
  A 0.54 0.54 0.0 0 0 281.03 84.01
  L 292.20 83.99
  A 0.54 0.54 0.0 0 0 292.74 83.45
  L 292.74 49.16
  A 0.54 0.54 0.0 0 0 292.19 48.62
  L 287.31 48.69
  A 0.54 0.54 0.0 0 1 286.76 48.15
  L 286.80 43.53
  A 0.54 0.54 0.0 0 0 286.26 42.99
  L 263.28 43.01
  A 0.54 0.54 0.0 0 0 262.74 43.57
  L 262.93 48.12
  Z
  M 328.58 66.25
  A 0.46 0.46 0.0 0 1 328.12 65.77
  L 328.30 60.84
  A 0.46 0.46 0.0 0 0 327.84 60.36
  L 310.95 60.37
  A 0.46 0.46 0.0 0 1 310.49 59.91
  L 310.51 49.43
  A 0.46 0.46 0.0 0 1 310.97 48.97
  L 321.26 48.97
  A 0.46 0.46 0.0 0 1 321.72 49.44
  L 321.64 54.47
  A 0.46 0.46 0.0 0 0 322.10 54.94
  L 333.37 54.97
  A 0.46 0.46 0.0 0 0 333.83 54.50
  L 333.78 49.09
  A 0.46 0.46 0.0 0 0 333.31 48.63
  L 328.55 48.68
  A 0.46 0.46 0.0 0 1 328.09 48.21
  L 328.27 43.49
  A 0.46 0.46 0.0 0 0 327.81 43.01
  L 304.71 43.00
  A 0.46 0.46 0.0 0 0 304.25 43.46
  L 304.19 48.22
  A 0.46 0.46 0.0 0 1 303.73 48.67
  L 298.74 48.62
  A 0.46 0.46 0.0 0 0 298.28 49.07
  L 298.25 60.31
  A 0.46 0.46 0.0 0 0 298.71 60.77
  L 303.76 60.78
  A 0.46 0.46 0.0 0 1 304.22 61.24
  L 304.19 66.19
  A 0.46 0.46 0.0 0 0 304.65 66.65
  L 321.25 66.68
  A 0.46 0.46 0.0 0 1 321.71 67.14
  L 321.71 77.54
  A 0.46 0.46 0.0 0 1 321.25 78.00
  L 310.94 78.02
  A 0.46 0.46 0.0 0 1 310.48 77.56
  L 310.52 72.50
  A 0.46 0.46 0.0 0 0 310.06 72.04
  L 298.73 72.02
  A 0.46 0.46 0.0 0 0 298.27 72.48
  L 298.28 77.90
  A 0.46 0.46 0.0 0 0 298.74 78.36
  L 303.74 78.40
  A 0.46 0.46 0.0 0 1 304.20 78.87
  L 304.12 83.53
  A 0.46 0.46 0.0 0 0 304.58 84.00
  L 327.81 83.98
  A 0.46 0.46 0.0 0 0 328.27 83.51
  L 328.13 78.83
  A 0.46 0.46 0.0 0 1 328.60 78.35
  L 333.32 78.39
  A 0.46 0.46 0.0 0 0 333.78 77.93
  L 333.80 66.67
  A 0.46 0.46 0.0 0 0 333.34 66.21
  L 328.58 66.25
  Z
  M 368.51 54.22
  A 0.45 0.45 0.0 0 1 368.06 54.67
  L 351.90 54.67
  A 0.45 0.45 0.0 0 1 351.45 54.22
  L 351.54 43.46
  A 0.45 0.45 0.0 0 0 351.09 43.01
  L 339.71 42.99
  A 0.45 0.45 0.0 0 0 339.26 43.44
  L 339.26 83.53
  A 0.45 0.45 0.0 0 0 339.72 83.98
  L 345.16 83.92
  A 0.45 0.45 0.0 0 0 345.60 83.47
  L 345.61 67.10
  A 0.45 0.45 0.0 0 1 346.07 66.65
  L 350.41 66.72
  A 0.45 0.45 0.0 0 1 350.85 67.17
  L 350.82 77.92
  A 0.45 0.45 0.0 0 0 351.27 78.37
  L 362.81 78.40
  A 0.45 0.45 0.0 0 0 363.26 77.95
  L 363.36 67.07
  A 0.45 0.45 0.0 0 1 363.81 66.63
  L 368.06 66.67
  A 0.45 0.45 0.0 0 1 368.50 67.12
  L 368.50 83.48
  A 0.45 0.45 0.0 0 0 368.95 83.93
  L 380.30 84.03
  A 0.45 0.45 0.0 0 0 380.75 83.58
  L 380.74 43.46
  A 0.45 0.45 0.0 0 0 380.29 43.01
  L 368.94 43.00
  A 0.45 0.45 0.0 0 0 368.49 43.45
  L 368.51 54.22
  Z
  M 391.91 48.13
  A 0.54 0.54 0.0 0 1 391.36 48.69
  L 386.76 48.60
  A 0.54 0.54 0.0 0 0 386.21 49.14
  L 386.18 83.50
  A 0.54 0.54 0.0 0 0 386.72 84.04
  L 397.75 83.98
  A 0.54 0.54 0.0 0 0 398.29 83.44
  L 398.27 72.86
  A 0.54 0.54 0.0 0 1 398.81 72.32
  L 408.97 72.36
  A 0.54 0.54 0.0 0 1 409.51 72.90
  L 409.51 83.46
  A 0.54 0.54 0.0 0 0 410.05 84.00
  L 421.20 83.99
  A 0.54 0.54 0.0 0 0 421.74 83.45
  L 421.74 49.18
  A 0.54 0.54 0.0 0 0 421.20 48.64
  L 416.30 48.66
  A 0.54 0.54 0.0 0 1 415.76 48.12
  L 415.79 43.53
  A 0.54 0.54 0.0 0 0 415.25 42.99
  L 392.31 43.02
  A 0.54 0.54 0.0 0 0 391.77 43.58
  L 391.91 48.13
  Z
  M 438.22 48.95
  A 0.49 0.49 0.0 0 1 438.71 49.44
  L 438.71 83.52
  A 0.49 0.49 0.0 0 0 439.20 84.01
  L 450.72 83.98
  A 0.49 0.49 0.0 0 0 451.21 83.49
  L 451.14 49.47
  A 0.49 0.49 0.0 0 1 451.63 48.98
  L 462.24 48.95
  A 0.49 0.49 0.0 0 0 462.73 48.46
  L 462.75 43.49
  A 0.49 0.49 0.0 0 0 462.26 43.00
  L 427.69 42.99
  A 0.49 0.49 0.0 0 0 427.20 43.48
  L 427.18 48.49
  A 0.49 0.49 0.0 0 0 427.67 48.98
  L 438.22 48.95
  Z
  M 480.02 83.99
  A 0.35 0.35 0.0 0 0 480.37 83.64
  L 480.34 66.96
  A 0.35 0.35 0.0 0 1 480.69 66.61
  L 491.15 66.70
  A 0.35 0.35 0.0 0 1 491.50 67.05
  L 491.52 83.67
  A 0.35 0.35 0.0 0 0 491.87 84.02
  L 503.39 83.96
  A 0.35 0.35 0.0 0 0 503.74 83.61
  L 503.74 43.36
  A 0.35 0.35 0.0 0 0 503.39 43.01
  L 491.84 43.00
  A 0.35 0.35 0.0 0 0 491.49 43.35
  L 491.51 59.99
  A 0.35 0.35 0.0 0 1 491.16 60.34
  L 480.66 60.37
  A 0.35 0.35 0.0 0 1 480.31 60.02
  L 480.39 43.38
  A 0.35 0.35 0.0 0 0 480.04 43.03
  L 468.55 42.96
  A 0.35 0.35 0.0 0 0 468.20 43.31
  L 468.13 83.64
  A 0.35 0.35 0.0 0 0 468.48 83.99
  L 480.02 83.99
  Z"
/>
<path fill="#000000" d="
  M 32.20 7.82
  Q 27.21 9.26 20.99 8.84
  L 21.12 3.41
  Q 21.13 2.82 21.72 2.84
  L 31.21 3.09
  Q 32.00 3.12 32.03 3.90
  L 32.20 7.82
  Z"
/>
<path fill="#000000" d="
  M 60.97 8.79
  L 49.60 8.75
  L 49.90 3.68
  Q 49.93 3.14 50.47 3.13
  L 60.29 2.85
  Q 60.80 2.84 60.81 3.34
  L 60.97 8.79
  Z"
/>
<path fill="#a5d6a7" d="
  M 32.20 7.82
  Q 32.68 9.22 33.79 9.13
  Q 32.24 10.93 32.88 13.76
  Q 32.99 14.28 33.52 14.29
  L 36.18 14.35
  A 2.32 2.31 -3.7 0 1 38.41 16.30
  L 38.91 19.43
  A 0.89 0.89 0.0 0 0 39.56 20.15
  Q 41.17 20.58 42.64 20.12
  Q 43.16 19.95 43.25 19.40
  Q 43.45 18.19 43.47 16.87
  C 43.51 14.44 46.51 14.17 48.29 14.48
  Q 49.41 14.67 49.27 13.54
  Q 49.05 11.77 49.28 9.79
  Q 49.30 9.54 49.15 9.36
  Q 48.99 9.16 48.77 9.24
  L 49.60 8.75
  L 60.97 8.79
  L 66.24 8.88
  L 61.60 9.01
  Q 61.06 9.03 61.05 9.57
  L 60.99 14.82
  L 55.82 14.88
  Q 55.46 14.88 55.46 15.25
  L 55.52 20.26
  A 0.40 0.39 89.2 0 0 55.91 20.65
  L 61.05 20.68
  L 64.96 20.90
  L 61.91 20.86
  Q 61.01 20.85 61.00 21.75
  L 60.98 25.84
  Q 60.97 26.82 61.96 26.77
  L 66.63 26.49
  Q 66.64 26.65 66.39 27.02
  Q 66.09 27.45 65.57 27.41
  L 60.84 27.05
  Q 61.45 27.22 60.62 26.96
  Q 60.48 26.91 60.34 26.94
  Q 58.24 27.27 56.33 27.07
  Q 55.63 26.99 55.59 27.69
  L 55.36 31.84
  Q 55.31 32.76 56.23 32.77
  L 59.66 32.82
  Q 57.29 33.14 56.00 33.16
  Q 55.31 33.17 55.34 34.21
  L 55.35 33.69
  Q 55.36 33.12 54.79 33.12
  L 27.73 33.25
  Q 27.18 33.26 27.12 33.79
  L 26.83 36.21
  Q 27.03 33.80 25.89 32.90
  Q 26.99 31.57 26.51 27.97
  A 0.85 0.84 -2.7 0 0 25.69 27.23
  L 21.15 27.05
  Q 18.37 26.59 16.04 27.05
  A 0.53 0.52 83.7 0 1 15.41 26.54
  L 15.41 20.92
  L 15.45 26.32
  A 0.38 0.38 0.0 0 0 15.82 26.70
  L 20.76 26.80
  Q 21.07 26.81 21.07 26.49
  L 20.98 21.44
  Q 20.97 20.86 21.56 20.86
  L 25.50 20.86
  Q 26.44 20.86 26.49 19.92
  L 26.69 15.89
  Q 26.74 14.89 25.73 14.91
  L 21.06 15.03
  L 15.45 14.85
  L 20.48 14.77
  Q 21.00 14.76 21.00 14.24
  L 20.99 8.84
  Q 27.21 9.26 32.20 7.82
  Z"
/>
<path fill="#000000" d="
  M 20.99 8.84
  L 21.00 14.24
  Q 21.00 14.76 20.48 14.77
  L 15.45 14.85
  L 15.47 9.51
  Q 15.47 8.98 16.00 8.97
  L 20.99 8.84
  Z"
/>
<path fill="#000000" d="
  M 66.24 8.88
  Q 66.95 11.50 66.49 14.36
  Q 66.41 14.87 65.90 14.86
  L 60.99 14.82
  L 61.05 9.57
  Q 61.06 9.03 61.60 9.01
  L 66.24 8.88
  Z"
/>
<path fill="#000000" d="
  M 33.79 9.13
  L 36.47 9.31
  A 1.40 1.38 -1.5 0 1 37.76 10.52
  L 38.26 14.55
  Q 38.34 15.11 38.91 15.12
  L 42.11 15.17
  A 1.47 1.47 0.0 0 0 43.59 13.90
  L 44.12 9.99
  Q 44.20 9.43 44.76 9.41
  L 48.77 9.24
  Q 48.99 9.16 49.15 9.36
  Q 49.30 9.54 49.28 9.79
  Q 49.05 11.77 49.27 13.54
  Q 49.41 14.67 48.29 14.48
  C 46.51 14.17 43.51 14.44 43.47 16.87
  Q 43.45 18.19 43.25 19.40
  Q 43.16 19.95 42.64 20.12
  Q 41.17 20.58 39.56 20.15
  A 0.89 0.89 0.0 0 1 38.91 19.43
  L 38.41 16.30
  A 2.32 2.31 -3.7 0 0 36.18 14.35
  L 33.52 14.29
  Q 32.99 14.28 32.88 13.76
  Q 32.24 10.93 33.79 9.13
  Z"
/>
<path fill="#000000" d="
  M 60.99 14.82
  L 61.05 20.68
  L 55.91 20.65
  A 0.40 0.39 89.2 0 1 55.52 20.26
  L 55.46 15.25
  Q 55.46 14.88 55.82 14.88
  L 60.99 14.82
  Z"
/>
<path fill="#000000" d="
  M 15.41 20.92
  L 20.36 20.90
  A 0.62 0.62 0.0 0 0 20.98 20.29
  L 21.06 15.03
  L 25.73 14.91
  Q 26.74 14.89 26.69 15.89
  L 26.49 19.92
  Q 26.44 20.86 25.50 20.86
  L 21.56 20.86
  Q 20.97 20.86 20.98 21.44
  L 21.07 26.49
  Q 21.07 26.81 20.76 26.80
  L 15.82 26.70
  A 0.38 0.38 0.0 0 1 15.45 26.32
  L 15.41 20.92
  Z"
/>
<path fill="#000000" d="
  M 64.96 20.90
  L 65.89 21.04
  Q 66.44 21.12 66.46 21.67
  L 66.63 26.49
  L 61.96 26.77
  Q 60.97 26.82 60.98 25.84
  L 61.00 21.75
  Q 61.01 20.85 61.91 20.86
  L 64.96 20.90
  Z"
/>
<path fill="#000000" d="
  M 25.89 32.90
  Q 23.68 32.56 22.02 32.85
  Q 21.52 32.94 21.38 32.45
  Q 20.70 30.09 21.15 27.05
  L 25.69 27.23
  A 0.85 0.84 -2.7 0 1 26.51 27.97
  Q 26.99 31.57 25.89 32.90
  Z"
/>
<path fill="#000000" d="
  M 60.84 27.05
  Q 61.71 33.82 59.66 32.82
  L 56.23 32.77
  Q 55.31 32.76 55.36 31.84
  L 55.59 27.69
  Q 55.63 26.99 56.33 27.07
  Q 58.24 27.27 60.34 26.94
  Q 60.48 26.91 60.62 26.96
  Q 61.45 27.22 60.84 27.05
  Z"
/>
<path fill="#000000" d="
  M 55.34 34.21
  Q 55.29 36.12 55.32 38.05
  Q 55.33 38.67 55.02 38.82
  Q 54.68 38.97 54.04 38.89
  L 40.45 38.63
  L 27.33 39.20
  Q 26.82 39.22 26.76 39.73
  L 26.15 44.73
  L 21.72 44.93
  L 21.38 44.83
  A 0.58 0.57 8.8 0 1 20.95 44.25
  L 21.12 39.62
  A 0.75 0.74 1.6 0 1 21.88 38.91
  L 25.97 38.97
  Q 26.46 38.98 26.53 38.49
  L 26.83 36.21
  L 27.12 33.79
  Q 27.18 33.26 27.73 33.25
  L 54.79 33.12
  Q 55.36 33.12 55.35 33.69
  L 55.34 34.21
  Z"
/>
<path fill="#fdd835" d="
  M 40.45 38.63
  Q 38.27 38.50 38.03 43.32
  Q 37.97 44.53 36.76 44.43
  C 33.53 44.14 31.74 44.47 32.15 48.30
  Q 32.34 50.05 30.60 50.33
  L 28.04 50.73
  Q 26.26 51.01 26.51 49.23
  Q 26.77 47.37 26.15 44.73
  L 26.76 39.73
  Q 26.82 39.22 27.33 39.20
  L 40.45 38.63
  Z"
/>
<path fill="#ffee58" d="
  M 54.04 38.89
  Q 54.87 39.15 55.23 38.93
  L 55.53 44.30
  Q 55.56 44.85 56.11 44.86
  L 57.53 44.87
  L 61.08 45.07
  L 61.11 50.32
  Q 61.11 50.86 61.65 50.86
  L 66.29 50.86
  L 67.25 61.27
  Q 66.03 63.42 72.39 63.00
  Q 71.85 63.09 72.33 63.71
  L 72.33 67.04
  C 72.03 69.50 69.42 69.35 67.73 68.78
  A 0.86 0.85 -81.5 0 0 66.60 69.62
  L 66.80 74.57
  Q 66.83 75.19 67.44 75.16
  L 71.21 74.98
  A 0.88 0.87 6.7 0 1 72.09 76.09
  Q 71.90 76.81 72.61 77.48
  L 72.31 80.03
  Q 72.25 80.56 71.79 80.83
  Q 69.91 81.92 67.80 81.64
  A 0.43 0.42 -84.4 0 0 67.32 82.04
  L 66.52 92.56
  Q 66.48 93.10 65.94 93.11
  L 61.67 93.22
  A 0.65 0.65 0.0 0 0 61.04 93.86
  L 61.00 99.20
  L 55.84 99.16
  A 0.53 0.53 0.0 0 0 55.31 99.67
  L 55.19 105.08
  L 40.63 105.11
  A 2.25 2.24 -0.8 0 1 38.37 102.92
  L 38.30 100.16
  Q 38.27 99.05 37.16 99.05
  L 33.01 99.06
  Q 32.27 99.06 32.28 99.80
  L 32.34 103.59
  A 1.45 1.44 88.8 0 1 30.94 105.06
  L 28.29 105.12
  L 26.92 105.01
  Q 26.74 104.50 26.74 104.90
  L 26.71 99.95
  Q 26.70 99.20 25.95 99.19
  L 21.72 99.14
  Q 21.23 98.83 20.96 98.87
  Q 21.32 95.65 20.61 93.07
  L 20.95 88.25
  Q 21.06 86.69 19.52 86.93
  Q 17.78 87.20 16.24 86.84
  Q 15.74 86.72 15.47 86.28
  Q 14.73 85.04 14.89 83.55
  Q 15.09 82.75 14.99 82.00
  Q 14.91 81.46 14.37 81.45
  L 11.21 81.40
  L 20.10 81.06
  Q 20.77 81.04 20.85 80.37
  Q 21.07 78.52 20.98 76.24
  Q 20.97 76.02 20.87 75.83
  Q 20.78 75.67 20.61 75.63
  Q 19.60 75.38 20.63 75.30
  Q 22.18 75.18 23.70 75.11
  Q 24.92 74.90 25.93 75.14
  A 0.64 0.64 0.0 0 0 26.71 74.50
  L 26.45 63.42
  Q 26.94 61.21 25.92 58.42
  A 2.43 2.43 0.0 0 0 23.30 56.84
  Q 22.77 56.91 22.00 57.13
  Q 21.52 57.26 21.40 57.74
  Q 20.72 60.54 21.21 63.24
  Q 18.81 62.72 16.34 63.28
  A 0.71 0.70 -4.6 0 0 15.80 63.91
  L 15.41 68.97
  L 10.66 68.75
  Q 10.15 68.72 9.91 68.29
  Q 9.37 67.34 9.68 65.77
  Q 9.04 63.26 10.60 63.05
  Q 12.50 62.80 14.51 62.92
  Q 14.96 62.94 14.98 62.50
  L 15.35 51.67
  Q 15.37 50.97 16.08 50.95
  L 20.30 50.82
  Q 20.87 50.80 20.88 50.24
  L 21.04 45.06
  L 21.72 44.93
  L 26.15 44.73
  Q 26.77 47.37 26.51 49.23
  Q 26.26 51.01 28.04 50.73
  L 30.60 50.33
  Q 32.34 50.05 32.15 48.30
  C 31.74 44.47 33.53 44.14 36.76 44.43
  Q 37.97 44.53 38.03 43.32
  Q 38.27 38.50 40.45 38.63
  L 54.04 38.89
  Z
  M 49.67 46.03
  A 1.06 1.06 0.0 0 0 48.61 44.92
  L 44.88 44.91
  A 1.06 1.06 0.0 0 0 43.81 45.94
  L 43.72 49.93
  A 1.06 1.06 0.0 0 0 44.85 51.01
  L 48.53 50.77
  A 1.06 1.06 0.0 0 0 49.52 49.76
  L 49.67 46.03
  Z
  M 55.62 63.29
  L 55.35 63.74
  Q 55.28 63.56 55.16 63.40
  Q 54.91 63.08 54.50 63.10
  L 49.71 63.38
  Q 47.13 62.68 44.30 63.11
  Q 43.81 63.19 43.79 63.69
  L 43.64 68.25
  A 0.85 0.85 0.0 0 1 42.79 69.07
  L 32.78 69.15
  Q 31.92 71.38 32.49 74.69
  Q 32.56 75.12 33.00 75.12
  L 43.08 75.10
  Q 43.62 75.10 43.65 74.55
  L 43.86 69.55
  L 48.72 68.93
  Q 49.08 68.88 49.28 68.57
  Q 49.41 68.37 49.60 68.27
  L 49.76 68.63
  Q 49.94 69.03 50.38 69.03
  L 55.31 69.08
  L 50.29 69.12
  A 0.64 0.64 0.0 0 0 49.66 69.76
  L 49.69 74.48
  Q 49.70 75.05 50.27 75.05
  L 59.21 75.08
  L 56.40 75.12
  Q 55.24 75.14 55.27 76.30
  L 55.37 80.16
  A 0.91 0.91 0.0 0 0 56.28 81.05
  L 64.94 81.05
  Q 66.68 81.05 66.72 79.31
  L 66.79 76.48
  A 1.31 1.31 0.0 0 0 65.48 75.14
  L 60.82 75.14
  L 60.74 62.94
  L 60.86 57.42
  Q 60.87 56.76 60.22 56.80
  L 56.31 57.07
  Q 55.62 57.11 55.50 57.79
  Q 54.98 60.51 55.62 63.29
  Z
  M 33.31 57.16
  A 0.78 0.78 0.0 0 0 32.58 57.87
  L 32.19 62.34
  A 0.78 0.78 0.0 0 0 32.98 63.19
  L 37.53 63.11
  A 0.78 0.78 0.0 0 0 38.30 62.31
  L 38.23 57.70
  A 0.78 0.78 0.0 0 0 37.41 56.94
  L 33.31 57.16
  Z
  M 32.3721 81.8451
  A 0.77 0.77 0.0 0 0 31.6061 81.0710
  L 27.4062 81.0490
  A 0.77 0.77 0.0 0 0 26.6321 81.8150
  L 26.6079 86.4349
  A 0.77 0.77 0.0 0 0 27.3739 87.2090
  L 31.5738 87.2310
  A 0.77 0.77 0.0 0 0 32.3479 86.4650
  L 32.3721 81.8451
  Z
  M 49.6341 81.7852
  A 0.76 0.76 0.0 0 0 48.8754 81.0238
  L 44.4754 81.0162
  A 0.76 0.76 0.0 0 0 43.7141 81.7748
  L 43.7059 86.4548
  A 0.76 0.76 0.0 0 0 44.4646 87.2162
  L 48.8646 87.2238
  A 0.76 0.76 0.0 0 0 49.6259 86.4652
  L 49.6341 81.7852
  Z
  M 60.89 87.72
  A 0.77 0.77 0.0 0 0 60.12 87.00
  L 56.08 87.01
  A 0.77 0.77 0.0 0 0 55.31 87.76
  L 55.21 92.48
  A 0.77 0.77 0.0 0 0 56.00 93.26
  L 60.45 93.12
  A 0.77 0.77 0.0 0 0 61.20 92.29
  L 60.89 87.72
  Z
  M 49.6683 93.7004
  A 0.72 0.72 0.0 0 0 48.9508 92.9779
  L 44.4509 92.9622
  A 0.72 0.72 0.0 0 0 43.7284 93.6796
  L 43.7117 98.4596
  A 0.72 0.72 0.0 0 0 44.4292 99.1821
  L 48.9291 99.1978
  A 0.72 0.72 0.0 0 0 49.6516 98.4804
  L 49.6683 93.7004
  Z"
/>
<path fill="#000000" d="
  M 57.53 44.87
  L 56.11 44.86
  Q 55.56 44.85 55.53 44.30
  L 55.23 38.93
  L 60.16 38.77
  Q 60.96 38.75 60.97 39.55
  L 61.01 44.05
  Q 61.02 44.91 60.16 44.90
  L 57.53 44.87
  Z"
/>
<path fill="#ffffff" d="
  M 123.37 48.68
  L 128.13 48.61
  A 0.60 0.60 0.0 0 1 128.74 49.21
  L 128.76 83.39
  A 0.60 0.60 0.0 0 1 128.16 83.99
  L 117.08 84.02
  A 0.60 0.60 0.0 0 1 116.48 83.42
  L 116.53 72.94
  A 0.60 0.60 0.0 0 0 115.93 72.34
  L 105.87 72.34
  A 0.60 0.60 0.0 0 0 105.27 72.94
  L 105.36 83.39
  A 0.60 0.60 0.0 0 1 104.76 83.99
  L 93.78 84.00
  A 0.60 0.60 0.0 0 1 93.18 83.40
  L 93.27 49.23
  A 0.60 0.60 0.0 0 1 93.86 48.63
  L 98.27 48.59
  A 0.60 0.60 0.0 0 0 98.86 47.98
  L 98.78 43.63
  A 0.60 0.60 0.0 0 1 99.38 43.02
  L 122.21 42.98
  A 0.60 0.60 0.0 0 1 122.81 43.59
  L 122.76 48.07
  A 0.60 0.60 0.0 0 0 123.37 48.68
  Z
  M 116.5144 49.3298
  A 0.35 0.35 0.0 0 0 116.1650 48.9791
  L 105.7051 48.9609
  A 0.35 0.35 0.0 0 0 105.3544 49.3103
  L 105.3256 65.8502
  A 0.35 0.35 0.0 0 0 105.6750 66.2009
  L 116.1349 66.2191
  A 0.35 0.35 0.0 0 0 116.4856 65.8697
  L 116.5144 49.3298
  Z"
/>
<path fill="#ffffff" d="
  M 146.80 54.69
  L 151.75 54.67
  A 0.50 0.50 0.0 0 1 152.25 55.18
  L 152.10 65.74
  A 0.50 0.50 0.0 0 0 152.60 66.25
  L 157.02 66.21
  A 0.50 0.50 0.0 0 0 157.52 65.71
  L 157.50 43.49
  A 0.50 0.50 0.0 0 1 158.00 42.99
  L 169.23 43.01
  A 0.50 0.50 0.0 0 1 169.73 43.51
  L 169.74 83.49
  A 0.50 0.50 0.0 0 1 169.24 83.99
  L 157.99 84.00
  A 0.50 0.50 0.0 0 1 157.49 83.50
  L 157.50 78.88
  A 0.50 0.50 0.0 0 0 157.00 78.38
  L 146.21 78.36
  A 0.50 0.50 0.0 0 1 145.71 77.86
  L 145.72 67.24
  A 0.50 0.50 0.0 0 0 145.23 66.74
  L 141.01 66.61
  A 0.50 0.50 0.0 0 0 140.50 67.11
  L 140.51 83.46
  A 0.50 0.50 0.0 0 1 140.01 83.96
  L 134.69 84.01
  A 0.50 0.50 0.0 0 1 134.19 83.51
  L 134.21 43.48
  A 0.50 0.50 0.0 0 1 134.71 42.98
  L 145.89 43.02
  A 0.50 0.50 0.0 0 1 146.39 43.52
  L 146.29 54.18
  A 0.50 0.50 0.0 0 0 146.80 54.69
  Z"
/>
<path fill="#ffffff" d="
  M 180.93 48.12
  L 180.74 43.55
  A 0.51 0.51 0.0 0 1 181.25 43.02
  L 204.29 42.99
  A 0.51 0.51 0.0 0 1 204.80 43.51
  L 204.76 48.18
  A 0.51 0.51 0.0 0 0 205.27 48.69
  L 210.20 48.63
  A 0.51 0.51 0.0 0 1 210.72 49.14
  L 210.75 83.48
  A 0.51 0.51 0.0 0 1 210.24 83.99
  L 199.00 84.00
  A 0.51 0.51 0.0 0 1 198.49 83.49
  L 198.51 72.87
  A 0.51 0.51 0.0 0 0 198.00 72.36
  L 187.83 72.34
  A 0.51 0.51 0.0 0 0 187.32 72.85
  L 187.36 83.49
  A 0.51 0.51 0.0 0 1 186.85 84.00
  L 175.70 84.01
  A 0.51 0.51 0.0 0 1 175.19 83.50
  L 175.22 49.11
  A 0.51 0.51 0.0 0 1 175.73 48.61
  L 180.41 48.65
  A 0.51 0.51 0.0 0 0 180.93 48.12
  Z
  M 198.50 49.27
  A 0.30 0.30 0.0 0 0 198.20 48.97
  L 187.64 48.97
  A 0.30 0.30 0.0 0 0 187.34 49.27
  L 187.34 65.93
  A 0.30 0.30 0.0 0 0 187.64 66.23
  L 198.20 66.23
  A 0.30 0.30 0.0 0 0 198.50 65.93
  L 198.50 49.27
  Z"
/>
<path fill="#ffffff" d="
  M 228.77 54.71
  L 233.74 54.67
  A 0.50 0.50 0.0 0 1 234.25 55.17
  L 234.15 65.72
  A 0.50 0.50 0.0 0 0 234.66 66.23
  L 239.01 66.21
  A 0.50 0.50 0.0 0 0 239.51 65.71
  L 239.49 43.49
  A 0.50 0.50 0.0 0 1 239.99 42.99
  L 251.22 43.01
  A 0.50 0.50 0.0 0 1 251.72 43.51
  L 251.72 83.50
  A 0.50 0.50 0.0 0 1 251.22 84.00
  L 240.01 83.96
  A 0.50 0.50 0.0 0 1 239.51 83.46
  L 239.51 78.98
  A 0.50 0.50 0.0 0 0 239.02 78.48
  L 228.22 78.37
  A 0.50 0.50 0.0 0 1 227.73 77.87
  L 227.68 67.23
  A 0.50 0.50 0.0 0 0 227.20 66.74
  L 223.01 66.61
  A 0.50 0.50 0.0 0 0 222.49 67.12
  L 222.53 83.44
  A 0.50 0.50 0.0 0 1 222.04 83.94
  L 216.70 84.01
  A 0.50 0.50 0.0 0 1 216.19 83.51
  L 216.21 43.49
  A 0.50 0.50 0.0 0 1 216.71 42.99
  L 227.90 43.02
  A 0.50 0.50 0.0 0 1 228.40 43.53
  L 228.27 54.21
  A 0.50 0.50 0.0 0 0 228.77 54.71
  Z"
/>
<path fill="#ffffff" d="
  M 262.93 48.12
  L 262.74 43.57
  A 0.54 0.54 0.0 0 1 263.28 43.01
  L 286.26 42.99
  A 0.54 0.54 0.0 0 1 286.80 43.53
  L 286.76 48.15
  A 0.54 0.54 0.0 0 0 287.31 48.69
  L 292.19 48.62
  A 0.54 0.54 0.0 0 1 292.74 49.16
  L 292.74 83.45
  A 0.54 0.54 0.0 0 1 292.20 83.99
  L 281.03 84.01
  A 0.54 0.54 0.0 0 1 280.49 83.47
  L 280.52 72.90
  A 0.54 0.54 0.0 0 0 279.98 72.36
  L 269.87 72.34
  A 0.54 0.54 0.0 0 0 269.33 72.88
  L 269.35 83.45
  A 0.54 0.54 0.0 0 1 268.81 83.99
  L 257.72 84.03
  A 0.54 0.54 0.0 0 1 257.18 83.49
  L 257.23 49.15
  A 0.54 0.54 0.0 0 1 257.78 48.61
  L 262.38 48.68
  A 0.54 0.54 0.0 0 0 262.93 48.12
  Z
  M 280.50 49.33
  A 0.35 0.35 0.0 0 0 280.15 48.98
  L 269.69 48.98
  A 0.35 0.35 0.0 0 0 269.34 49.33
  L 269.34 65.87
  A 0.35 0.35 0.0 0 0 269.69 66.22
  L 280.15 66.22
  A 0.35 0.35 0.0 0 0 280.50 65.87
  L 280.50 49.33
  Z"
/>
<path fill="#ffffff" d="
  M 328.58 66.25
  L 333.34 66.21
  A 0.46 0.46 0.0 0 1 333.80 66.67
  L 333.78 77.93
  A 0.46 0.46 0.0 0 1 333.32 78.39
  L 328.60 78.35
  A 0.46 0.46 0.0 0 0 328.13 78.83
  L 328.27 83.51
  A 0.46 0.46 0.0 0 1 327.81 83.98
  L 304.58 84.00
  A 0.46 0.46 0.0 0 1 304.12 83.53
  L 304.20 78.87
  A 0.46 0.46 0.0 0 0 303.74 78.40
  L 298.74 78.36
  A 0.46 0.46 0.0 0 1 298.28 77.90
  L 298.27 72.48
  A 0.46 0.46 0.0 0 1 298.73 72.02
  L 310.06 72.04
  A 0.46 0.46 0.0 0 1 310.52 72.50
  L 310.48 77.56
  A 0.46 0.46 0.0 0 0 310.94 78.02
  L 321.25 78.00
  A 0.46 0.46 0.0 0 0 321.71 77.54
  L 321.71 67.14
  A 0.46 0.46 0.0 0 0 321.25 66.68
  L 304.65 66.65
  A 0.46 0.46 0.0 0 1 304.19 66.19
  L 304.22 61.24
  A 0.46 0.46 0.0 0 0 303.76 60.78
  L 298.71 60.77
  A 0.46 0.46 0.0 0 1 298.25 60.31
  L 298.28 49.07
  A 0.46 0.46 0.0 0 1 298.74 48.62
  L 303.73 48.67
  A 0.46 0.46 0.0 0 0 304.19 48.22
  L 304.25 43.46
  A 0.46 0.46 0.0 0 1 304.71 43.00
  L 327.81 43.01
  A 0.46 0.46 0.0 0 1 328.27 43.49
  L 328.09 48.21
  A 0.46 0.46 0.0 0 0 328.55 48.68
  L 333.31 48.63
  A 0.46 0.46 0.0 0 1 333.78 49.09
  L 333.83 54.50
  A 0.46 0.46 0.0 0 1 333.37 54.97
  L 322.10 54.94
  A 0.46 0.46 0.0 0 1 321.64 54.47
  L 321.72 49.44
  A 0.46 0.46 0.0 0 0 321.26 48.97
  L 310.97 48.97
  A 0.46 0.46 0.0 0 0 310.51 49.43
  L 310.49 59.91
  A 0.46 0.46 0.0 0 0 310.95 60.37
  L 327.84 60.36
  A 0.46 0.46 0.0 0 1 328.30 60.84
  L 328.12 65.77
  A 0.46 0.46 0.0 0 0 328.58 66.25
  Z"
/>
<path fill="#ffffff" d="
  M 368.51 54.22
  L 368.49 43.45
  A 0.45 0.45 0.0 0 1 368.94 43.00
  L 380.29 43.01
  A 0.45 0.45 0.0 0 1 380.74 43.46
  L 380.75 83.58
  A 0.45 0.45 0.0 0 1 380.30 84.03
  L 368.95 83.93
  A 0.45 0.45 0.0 0 1 368.50 83.48
  L 368.50 67.12
  A 0.45 0.45 0.0 0 0 368.06 66.67
  L 363.81 66.63
  A 0.45 0.45 0.0 0 0 363.36 67.07
  L 363.26 77.95
  A 0.45 0.45 0.0 0 1 362.81 78.40
  L 351.27 78.37
  A 0.45 0.45 0.0 0 1 350.82 77.92
  L 350.85 67.17
  A 0.45 0.45 0.0 0 0 350.41 66.72
  L 346.07 66.65
  A 0.45 0.45 0.0 0 0 345.61 67.10
  L 345.60 83.47
  A 0.45 0.45 0.0 0 1 345.16 83.92
  L 339.72 83.98
  A 0.45 0.45 0.0 0 1 339.26 83.53
  L 339.26 43.44
  A 0.45 0.45 0.0 0 1 339.71 42.99
  L 351.09 43.01
  A 0.45 0.45 0.0 0 1 351.54 43.46
  L 351.45 54.22
  A 0.45 0.45 0.0 0 0 351.90 54.67
  L 368.06 54.67
  A 0.45 0.45 0.0 0 0 368.51 54.22
  Z"
/>
<path fill="#ffffff" d="
  M 391.91 48.13
  L 391.77 43.58
  A 0.54 0.54 0.0 0 1 392.31 43.02
  L 415.25 42.99
  A 0.54 0.54 0.0 0 1 415.79 43.53
  L 415.76 48.12
  A 0.54 0.54 0.0 0 0 416.30 48.66
  L 421.20 48.64
  A 0.54 0.54 0.0 0 1 421.74 49.18
  L 421.74 83.45
  A 0.54 0.54 0.0 0 1 421.20 83.99
  L 410.05 84.00
  A 0.54 0.54 0.0 0 1 409.51 83.46
  L 409.51 72.90
  A 0.54 0.54 0.0 0 0 408.97 72.36
  L 398.81 72.32
  A 0.54 0.54 0.0 0 0 398.27 72.86
  L 398.29 83.44
  A 0.54 0.54 0.0 0 1 397.75 83.98
  L 386.72 84.04
  A 0.54 0.54 0.0 0 1 386.18 83.50
  L 386.21 49.14
  A 0.54 0.54 0.0 0 1 386.76 48.60
  L 391.36 48.69
  A 0.54 0.54 0.0 0 0 391.91 48.13
  Z
  M 409.50 49.32
  A 0.35 0.35 0.0 0 0 409.15 48.97
  L 398.69 48.97
  A 0.35 0.35 0.0 0 0 398.34 49.32
  L 398.34 65.86
  A 0.35 0.35 0.0 0 0 398.69 66.21
  L 409.15 66.21
  A 0.35 0.35 0.0 0 0 409.50 65.86
  L 409.50 49.32
  Z"
/>
<path fill="#ffffff" d="
  M 438.22 48.95
  L 427.67 48.98
  A 0.49 0.49 0.0 0 1 427.18 48.49
  L 427.20 43.48
  A 0.49 0.49 0.0 0 1 427.69 42.99
  L 462.26 43.00
  A 0.49 0.49 0.0 0 1 462.75 43.49
  L 462.73 48.46
  A 0.49 0.49 0.0 0 1 462.24 48.95
  L 451.63 48.98
  A 0.49 0.49 0.0 0 0 451.14 49.47
  L 451.21 83.49
  A 0.49 0.49 0.0 0 1 450.72 83.98
  L 439.20 84.01
  A 0.49 0.49 0.0 0 1 438.71 83.52
  L 438.71 49.44
  A 0.49 0.49 0.0 0 0 438.22 48.95
  Z"
/>
<path fill="#ffffff" d="
  M 480.02 83.99
  L 468.48 83.99
  A 0.35 0.35 0.0 0 1 468.13 83.64
  L 468.20 43.31
  A 0.35 0.35 0.0 0 1 468.55 42.96
  L 480.04 43.03
  A 0.35 0.35 0.0 0 1 480.39 43.38
  L 480.31 60.02
  A 0.35 0.35 0.0 0 0 480.66 60.37
  L 491.16 60.34
  A 0.35 0.35 0.0 0 0 491.51 59.99
  L 491.49 43.35
  A 0.35 0.35 0.0 0 1 491.84 43.00
  L 503.39 43.01
  A 0.35 0.35 0.0 0 1 503.74 43.36
  L 503.74 83.61
  A 0.35 0.35 0.0 0 1 503.39 83.96
  L 491.87 84.02
  A 0.35 0.35 0.0 0 1 491.52 83.67
  L 491.50 67.05
  A 0.35 0.35 0.0 0 0 491.15 66.70
  L 480.69 66.61
  A 0.35 0.35 0.0 0 0 480.34 66.96
  L 480.37 83.64
  A 0.35 0.35 0.0 0 1 480.02 83.99
  Z"
/>
<path fill="#000000" d="
  M 21.04 45.06
  L 20.88 50.24
  Q 20.87 50.80 20.30 50.82
  L 16.08 50.95
  Q 15.37 50.97 15.35 51.67
  L 14.98 62.50
  Q 14.96 62.94 14.51 62.92
  Q 12.50 62.80 10.60 63.05
  Q 9.04 63.26 9.68 65.77
  L 9.68 75.38
  Q 8.69 81.55 11.21 81.40
  L 14.37 81.45
  Q 14.91 81.46 14.99 82.00
  Q 15.09 82.75 14.89 83.55
  Q 14.76 87.63 15.28 91.76
  Q 15.44 92.98 14.72 93.05
  L 10.80 92.62
  Q 10.29 92.57 10.24 92.05
  L 9.29 82.59
  A 1.91 1.91 0.0 0 0 7.59 80.89
  L 5.04 80.64
  Q 4.39 80.57 4.38 79.92
  L 4.18 64.05
  Q 4.17 63.51 4.71 63.47
  L 8.42 63.17
  A 1.13 1.12 -1.4 0 0 9.46 62.09
  L 9.85 51.70
  Q 9.87 51.03 10.55 51.02
  L 14.72 50.95
  A 0.69 0.69 0.0 0 0 15.40 50.28
  L 15.55 45.66
  Q 15.57 45.06 16.17 45.06
  L 21.04 45.06
  Z"
/>
<path fill="#fdd835" d="
  M 49.67 46.03
  L 49.52 49.76
  A 1.06 1.06 0.0 0 1 48.53 50.77
  L 44.85 51.01
  A 1.06 1.06 0.0 0 1 43.72 49.93
  L 43.81 45.94
  A 1.06 1.06 0.0 0 1 44.88 44.91
  L 48.61 44.92
  A 1.06 1.06 0.0 0 1 49.67 46.03
  Z"
/>
<path fill="#000000" d="
  M 66.71 50.05
  Q 66.86 50.26 66.29 50.86
  L 61.65 50.86
  Q 61.11 50.86 61.11 50.32
  L 61.08 45.07
  L 66.03 45.15
  Q 66.57 45.16 66.59 45.70
  L 66.71 50.05
  Z"
/>
<rect fill="#f3f060" x="-5.58" y="-8.62" transform="translate(110.92,57.59) rotate(0.1)" width="11.16" height="17.24" rx="0.35"/>
<rect fill="#f3f060" x="187.34" y="48.97" width="11.16" height="17.26" rx="0.30"/>
<rect fill="#f3f060" x="269.34" y="48.98" width="11.16" height="17.24" rx="0.35"/>
<rect fill="#f3f060" x="398.34" y="48.97" width="11.16" height="17.24" rx="0.35"/>
<path fill="#a5d6a7" d="
  M 66.71 50.05
  Q 66.87 51.16 68.99 50.89
  Q 65.58 50.34 67.36 57.25
  Q 67.58 58.09 67.25 61.27
  L 66.29 50.86
  Q 66.86 50.26 66.71 50.05
  Z"
/>
<path fill="#000000" d="
  M 68.99 50.89
  L 71.32 51.27
  Q 71.93 51.37 71.90 51.99
  C 71.70 55.51 72.65 58.83 72.62 62.38
  Q 72.62 62.61 72.46 62.77
  Q 71.70 63.53 72.39 63.00
  Q 66.03 63.42 67.25 61.27
  Q 67.58 58.09 67.36 57.25
  Q 65.58 50.34 68.99 50.89
  Z"
/>
<path fill="#fdd835" d="
  M 60.74 62.94
  L 55.62 63.29
  Q 54.98 60.51 55.50 57.79
  Q 55.62 57.11 56.31 57.07
  L 60.22 56.80
  Q 60.87 56.76 60.86 57.42
  L 60.74 62.94
  Z"
/>
<path fill="#fdd835" d="
  M 26.45 63.42
  L 21.21 63.24
  Q 20.72 60.54 21.40 57.74
  Q 21.52 57.26 22.00 57.13
  Q 22.77 56.91 23.30 56.84
  A 2.43 2.43 0.0 0 1 25.92 58.42
  Q 26.94 61.21 26.45 63.42
  Z"
/>
<path fill="#fdd835" d="
  M 33.31 57.16
  L 37.41 56.94
  A 0.78 0.78 0.0 0 1 38.23 57.70
  L 38.30 62.31
  A 0.78 0.78 0.0 0 1 37.53 63.11
  L 32.98 63.19
  A 0.78 0.78 0.0 0 1 32.19 62.34
  L 32.58 57.87
  A 0.78 0.78 0.0 0 1 33.31 57.16
  Z"
/>
<path fill="#000000" d="
  M 61.00 99.20
  L 61.04 93.86
  A 0.65 0.65 0.0 0 1 61.67 93.22
  L 65.94 93.11
  Q 66.48 93.10 66.52 92.56
  L 67.32 82.04
  A 0.43 0.42 -84.4 0 1 67.80 81.64
  Q 69.91 81.92 71.79 80.83
  Q 72.25 80.56 72.31 80.03
  L 72.61 77.48
  L 72.33 67.04
  L 72.33 63.71
  Q 72.34 63.56 72.37 63.44
  A 0.71 0.70 -79.7 0 1 73.13 62.91
  L 76.93 63.33
  Q 77.69 63.42 77.70 64.19
  L 77.83 79.87
  Q 77.83 80.59 77.12 80.69
  L 73.61 81.21
  Q 73.01 81.29 72.94 81.90
  L 71.77 92.01
  Q 71.69 92.72 70.98 92.81
  L 67.33 93.24
  A 0.69 0.68 87.1 0 0 66.73 93.91
  L 66.66 98.48
  Q 66.66 99.16 65.98 99.16
  L 61.00 99.20
  Z"
/>
<path fill="#ffffff" d="
  M 21.21 63.24
  L 20.85 68.58
  Q 20.81 69.12 20.27 69.11
  L 15.41 68.97
  L 15.80 63.91
  A 0.71 0.70 -4.6 0 1 16.34 63.28
  Q 18.81 62.72 21.21 63.24
  Z"
/>
<path fill="#fdd835" d="
  M 49.71 63.38
  L 49.60 68.27
  Q 49.41 68.37 49.28 68.57
  Q 49.08 68.88 48.72 68.93
  L 43.86 69.55
  L 32.78 69.15
  L 42.79 69.07
  A 0.85 0.85 0.0 0 0 43.64 68.25
  L 43.79 63.69
  Q 43.81 63.19 44.30 63.11
  Q 47.13 62.68 49.71 63.38
  Z"
/>
<path fill="#ffffff" d="
  M 55.35 63.74
  L 55.31 69.08
  L 50.38 69.03
  Q 49.94 69.03 49.76 68.63
  L 49.60 68.27
  L 49.71 63.38
  L 54.50 63.10
  Q 54.91 63.08 55.16 63.40
  Q 55.28 63.56 55.35 63.74
  Z"
/>
<path fill="#000000" d="
  M 60.74 62.94
  L 60.82 75.14
  L 59.21 75.08
  L 50.27 75.05
  Q 49.70 75.05 49.69 74.48
  L 49.66 69.76
  A 0.64 0.64 0.0 0 1 50.29 69.12
  L 55.31 69.08
  L 55.35 63.74
  L 55.62 63.29
  L 60.74 62.94
  Z"
/>
<path fill="#000000" d="
  M 21.21 63.24
  L 26.45 63.42
  L 26.71 74.50
  A 0.64 0.64 0.0 0 1 25.93 75.14
  Q 24.92 74.90 23.70 75.11
  L 15.67 75.08
  L 15.41 68.97
  L 20.27 69.11
  Q 20.81 69.12 20.85 68.58
  L 21.21 63.24
  Z"
/>
<path fill="#fdd835" d="
  M 9.68 65.77
  Q 9.37 67.34 9.91 68.29
  Q 10.15 68.72 10.66 68.75
  L 15.41 68.97
  L 15.67 75.08
  L 9.68 75.38
  L 9.68 65.77
  Z"
/>
<path fill="#fdd835" d="
  M 72.33 67.04
  L 72.61 77.48
  Q 71.90 76.81 72.09 76.09
  A 0.88 0.87 6.7 0 0 71.21 74.98
  L 67.44 75.16
  Q 66.83 75.19 66.80 74.57
  L 66.60 69.62
  A 0.86 0.85 -81.5 0 1 67.73 68.78
  C 69.42 69.35 72.03 69.50 72.33 67.04
  Z"
/>
<path fill="#000000" d="
  M 32.78 69.15
  L 43.86 69.55
  L 43.65 74.55
  Q 43.62 75.10 43.08 75.10
  L 33.00 75.12
  Q 32.56 75.12 32.49 74.69
  Q 31.92 71.38 32.78 69.15
  Z"
/>
<path fill="#ffcdd3" d="
  M 23.70 75.11
  Q 22.18 75.18 20.63 75.30
  Q 19.60 75.38 20.61 75.63
  Q 20.78 75.67 20.87 75.83
  Q 20.97 76.02 20.98 76.24
  Q 21.07 78.52 20.85 80.37
  Q 20.77 81.04 20.10 81.06
  L 11.21 81.40
  Q 8.69 81.55 9.68 75.38
  L 15.67 75.08
  L 23.70 75.11
  Z"
/>
<path fill="#ffcdd3" d="
  M 59.21 75.08
  L 60.82 75.14
  L 65.48 75.14
  A 1.31 1.31 0.0 0 1 66.79 76.48
  L 66.72 79.31
  Q 66.68 81.05 64.94 81.05
  L 56.28 81.05
  A 0.91 0.91 0.0 0 1 55.37 80.16
  L 55.27 76.30
  Q 55.24 75.14 56.40 75.12
  L 59.21 75.08
  Z"
/>
<rect fill="#fdd835" x="-2.87" y="-3.08" transform="translate(29.49,84.14) rotate(0.3)" width="5.74" height="6.16" rx="0.77"/>
<rect fill="#fdd835" x="-2.96" y="-3.10" transform="translate(46.67,84.12) rotate(0.1)" width="5.92" height="6.20" rx="0.76"/>
<path fill="#fdd835" d="
  M 14.89 83.55
  Q 14.73 85.04 15.47 86.28
  Q 15.74 86.72 16.24 86.84
  Q 17.78 87.20 19.52 86.93
  Q 21.06 86.69 20.95 88.25
  L 20.61 93.07
  L 15.20 93.27
  Q 15.13 93.81 14.72 93.05
  Q 15.44 92.98 15.28 91.76
  Q 14.76 87.63 14.89 83.55
  Z"
/>
<path fill="#fdd835" d="
  M 60.89 87.72
  L 61.20 92.29
  A 0.77 0.77 0.0 0 1 60.45 93.12
  L 56.00 93.26
  A 0.77 0.77 0.0 0 1 55.21 92.48
  L 55.31 87.76
  A 0.77 0.77 0.0 0 1 56.08 87.01
  L 60.12 87.00
  A 0.77 0.77 0.0 0 1 60.89 87.72
  Z"
/>
<rect fill="#fdd835" x="-2.97" y="-3.11" transform="translate(46.69,96.08) rotate(0.2)" width="5.94" height="6.22" rx="0.72"/>
<path fill="#000000" d="
  M 20.61 93.07
  Q 21.32 95.65 20.96 98.87
  Q 18.68 99.32 16.37 98.75
  Q 15.87 98.63 15.81 98.13
  L 15.20 93.27
  L 20.61 93.07
  Z"
/>
<path fill="#000000" d="
  M 21.72 99.14
  L 25.95 99.19
  Q 26.70 99.20 26.71 99.95
  L 26.74 104.90
  L 21.79 105.14
  Q 21.09 105.18 21.08 104.48
  L 21.00 99.50
  Q 20.99 99.11 21.38 99.12
  L 21.72 99.14
  Z"
/>
<path fill="#fdd835" d="
  M 55.19 105.08
  L 28.29 105.12
  L 30.94 105.06
  A 1.45 1.44 88.8 0 0 32.34 103.59
  L 32.28 99.80
  Q 32.27 99.06 33.01 99.06
  L 37.16 99.05
  Q 38.27 99.05 38.30 100.16
  L 38.37 102.92
  A 2.25 2.24 -0.8 0 0 40.63 105.11
  L 55.19 105.08
  Z"
/>
<path fill="#000000" d="
  M 61.00 99.20
  L 60.91 104.59
  Q 60.90 105.18 60.31 105.17
  L 55.82 105.16
  Q 55.30 105.16 55.30 105.68
  L 55.31 110.56
  Q 55.31 111.18 54.69 111.18
  L 27.50 111.14
  Q 26.97 111.14 26.89 110.62
  Q 26.43 107.82 26.92 105.01
  L 28.29 105.12
  L 55.19 105.08
  L 55.31 99.67
  A 0.53 0.53 0.0 0 1 55.84 99.16
  L 61.00 99.20
  Z"
/>
</svg>
